<svg width="988" height="490" viewBox="0 0 988 490" fill="none" xmlns="http://www.w3.org/2000/svg">
<rect opacity="0.2" x="91" y="316.553" width="9" height="173" fill="url(#paint0_linear_417_11460)"/>
<rect opacity="0.2" y="133.553" width="9" height="173" fill="url(#paint1_linear_417_11460)"/>
<rect opacity="0.2" x="912" y="182.553" width="9" height="173" fill="url(#paint2_linear_417_11460)"/>
<rect opacity="0.2" x="798" y="283.553" width="9" height="123" fill="url(#paint3_linear_417_11460)"/>
<rect opacity="0.2" x="979" y="49.553" width="9" height="173" fill="url(#paint4_linear_417_11460)"/>
<g opacity="0.21">
<path d="M871.135 305.421C870.264 303.821 862.153 295.481 862.153 295.481L843.949 296.219C843.949 296.219 837.093 303.378 836.2 304.745L835.002 302.852L835.008 308.186C834.862 311.036 836.682 313.92 840.461 316.102C844.511 318.166 848.991 319.246 853.536 319.254C858.082 319.262 862.565 318.199 866.623 316.149C869.934 314.237 871.696 311.773 871.949 309.263L871.966 309.288L871.967 309.024C871.984 308.778 871.985 308.532 871.972 308.286L872 303.262L871.135 305.421ZM864.384 311.811L864.183 310.887H842.038V310.947C840.468 308.453 841.39 305.56 844.837 303.57C847.516 302.217 850.477 301.514 853.478 301.52C856.479 301.525 859.436 302.238 862.11 303.601C865.969 305.829 866.727 309.163 864.384 311.811Z" fill="url(#paint5_linear_417_11460)"/>
<path d="M866.541 295.732C862.491 293.668 858.011 292.588 853.466 292.58C848.92 292.572 844.437 293.636 840.379 295.685C833.178 299.844 833.214 306.607 840.461 310.792C844.511 312.856 848.991 313.936 853.536 313.944C858.082 313.952 862.565 312.888 866.623 310.839C873.824 306.68 873.788 299.917 866.541 295.732ZM844.892 308.233C840.107 305.471 840.083 301.005 844.838 298.26C847.516 296.906 850.477 296.204 853.478 296.21C856.479 296.215 859.436 296.928 862.11 298.291C866.895 301.054 866.919 305.519 862.164 308.265C859.485 309.618 856.525 310.32 853.524 310.315C850.523 310.309 847.566 309.596 844.892 308.233Z" fill="url(#paint6_linear_417_11460)"/>
</g>
<path opacity="0.15" d="M871.997 314.472C871.971 311.747 870.152 309.021 866.541 306.936C862.491 304.872 858.011 303.792 853.466 303.784C848.92 303.776 844.437 304.839 840.379 306.889C836.926 308.883 835.156 311.476 835.028 314.097L835.002 314.056L835.002 314.427V314.437L835.008 319.39C834.862 322.24 836.682 325.124 840.461 327.306C844.511 329.37 848.991 330.45 853.536 330.458C858.082 330.466 862.565 329.403 866.623 327.353C869.934 325.441 871.696 322.977 871.949 320.467L871.966 320.492L871.967 320.228C871.984 319.982 871.985 319.735 871.972 319.489L872 314.499L872 314.466L871.997 314.472ZM862.164 319.468C859.485 320.822 856.525 321.524 853.524 321.518C850.523 321.513 847.566 320.8 844.892 319.437C843.836 318.861 842.916 318.064 842.197 317.1C842.895 316.14 843.797 315.345 844.837 314.774C847.516 313.42 850.476 312.718 853.478 312.723C856.479 312.729 859.436 313.442 862.11 314.805C862.441 314.757 862.779 314.781 863.1 314.875C863.422 314.968 863.719 315.13 863.973 315.347C864.227 315.565 864.432 315.835 864.574 316.138C864.715 316.441 864.79 316.771 864.794 317.106C864.798 317.441 864.731 317.772 864.596 318.079C864.462 318.385 864.263 318.659 864.014 318.883C863.765 319.106 863.471 319.274 863.152 319.375C862.833 319.476 862.496 319.508 862.164 319.468Z" fill="url(#paint7_linear_417_11460)"/>
<path d="M871.135 297.394C870.264 295.794 862.153 287.454 862.153 287.454L843.949 288.191C843.949 288.191 837.093 295.351 836.2 296.718L835.002 294.825L835.008 300.159C834.862 303.009 836.682 305.893 840.461 308.075C844.511 310.139 848.991 311.219 853.536 311.227C858.082 311.235 862.565 310.172 866.623 308.122C869.934 306.21 871.696 303.746 871.949 301.236L871.966 301.261L871.967 300.997C871.984 300.751 871.985 300.505 871.972 300.259L872 295.235L871.135 297.394ZM864.384 303.784L864.183 302.86H842.038V302.92C840.468 300.426 841.39 297.533 844.837 295.543C847.516 294.19 850.477 293.487 853.478 293.493C856.479 293.498 859.436 294.211 862.11 295.574C865.969 297.802 866.727 301.136 864.384 303.784Z" fill="url(#paint8_linear_417_11460)"/>
<path d="M866.541 287.705C862.491 285.641 858.011 284.561 853.466 284.553C848.92 284.545 844.437 285.609 840.379 287.658C833.178 291.816 833.214 298.58 840.461 302.765C844.511 304.829 848.991 305.909 853.536 305.917C858.082 305.925 862.565 304.861 866.623 302.812C873.824 298.653 873.788 291.89 866.541 287.705ZM844.892 300.206C840.107 297.443 840.083 292.978 844.838 290.232C847.516 288.879 850.477 288.177 853.478 288.182C856.479 288.188 859.436 288.901 862.11 290.264C866.895 293.026 866.919 297.492 862.164 300.237C859.485 301.591 856.525 302.293 853.524 302.288C850.523 302.282 847.565 301.569 844.892 300.206Z" fill="url(#paint9_linear_417_11460)"/>
<g opacity="0.21">
<path d="M67.0189 15.0017C66.4162 13.8941 60.8002 8.11975 60.8002 8.11975L48.1962 8.63014C48.1962 8.63014 43.4492 13.5871 42.8312 14.5337L42.0012 13.2232L42.0056 16.9165C41.9046 18.8895 43.1648 20.8864 45.781 22.3971C48.5852 23.8262 51.6867 24.574 54.8339 24.5797C57.9812 24.5854 61.0854 23.8488 63.8947 22.4298C66.1878 21.1058 67.4073 19.3999 67.5826 17.6621L67.5944 17.6791L67.5955 17.4964C67.6066 17.3262 67.6076 17.1555 67.5984 16.9852L67.6179 13.5068L67.0189 15.0017ZM62.3446 19.4261L62.2059 18.7862H46.8728V18.8278C45.7862 17.1009 46.4244 15.0982 48.8113 13.7201C50.666 12.7832 52.7155 12.2969 54.7934 12.3006C56.8713 12.3044 58.9191 12.7981 60.7705 13.7416C63.442 15.2844 63.9667 17.5929 62.3446 19.4261Z" fill="url(#paint10_linear_417_11460)"/>
<path d="M63.8381 8.29347C61.0339 6.86433 57.9324 6.11656 54.7852 6.11087C51.6379 6.10518 48.5337 6.84172 45.7244 8.26071C40.7381 11.14 40.7634 15.8228 45.7811 18.7203C48.5853 20.1494 51.6868 20.8971 54.8341 20.9028C57.9813 20.9085 61.0856 20.1719 63.8948 18.7529C68.8811 15.8737 68.8557 11.1908 63.8381 8.29347ZM48.8486 16.9489C45.5358 15.036 45.5191 11.9442 48.8112 10.0431C50.666 9.10629 52.7155 8.62001 54.7934 8.62378C56.8713 8.62754 58.9191 9.12124 60.7705 10.0648C64.0833 11.9776 64.1001 15.0695 60.808 16.9705C58.9532 17.9074 56.9037 18.3937 54.8258 18.3899C52.7478 18.3862 50.7001 17.8925 48.8486 16.9489Z" fill="url(#paint11_linear_417_11460)"/>
</g>
<path opacity="0.15" d="M67.6162 21.2687C67.5977 19.3822 66.3385 17.4948 63.8381 16.0508C61.0339 14.6217 57.9324 13.874 54.7852 13.8683C51.638 13.8626 48.5337 14.5992 45.7244 16.0182C43.3333 17.3989 42.1076 19.1945 42.0191 21.0088L42.0012 20.9806L42.0015 21.2373V21.2446L42.0056 24.6739C41.9046 26.6468 43.1648 28.6438 45.781 30.1545C48.5852 31.5836 51.6867 32.3313 54.8339 32.337C57.9812 32.3427 61.0854 31.6062 63.8947 30.1872C66.1876 28.8632 67.4074 27.1573 67.5827 25.4194L67.5945 25.4364L67.5955 25.2538C67.6067 25.0836 67.6076 24.9129 67.5983 24.7426L67.6179 21.2876L67.618 21.2643L67.6162 21.2687ZM60.808 24.728C58.9532 25.6648 56.9037 26.1512 54.8258 26.1474C52.7478 26.1437 50.7 25.65 48.8486 24.7064C48.1176 24.3074 47.4811 23.7555 46.9827 23.0881C47.4663 22.4232 48.0907 21.8732 48.8113 21.4773C50.6661 20.5405 52.7156 20.0542 54.7935 20.058C56.8714 20.0617 58.9192 20.5554 60.7706 21.499C61.5045 21.9039 62.1391 22.4669 62.6287 23.1472C62.1418 23.7982 61.5209 24.3372 60.808 24.728Z" fill="url(#paint12_linear_417_11460)"/>
<path d="M67.0189 9.44409C66.4162 8.33635 60.8002 2.56201 60.8002 2.56201L48.1962 3.07253C48.1962 3.07253 43.4492 8.02934 42.8312 8.97595L42.0012 7.66557L42.0056 11.3587C41.9046 13.3316 43.1648 15.3286 45.781 16.8395C48.5852 18.2686 51.6867 19.0163 54.8339 19.022C57.9812 19.0276 61.0854 18.2911 63.8947 16.8721C66.1878 15.5481 67.4073 13.8421 67.5826 12.1044L67.5944 12.1214L67.5955 11.9388C67.6066 11.7686 67.6076 11.5979 67.5984 11.4276L67.6179 7.94919L67.0189 9.44409ZM62.3446 13.8683L62.2059 13.2285H46.8728V13.2701C45.7862 11.5431 46.4244 9.54053 48.8113 8.16232C50.666 7.22544 52.7155 6.73916 54.7934 6.74292C56.8713 6.74669 58.9191 7.24041 60.7705 8.184C63.442 9.72663 63.9667 12.0352 62.3446 13.8683Z" fill="url(#paint13_linear_417_11460)"/>
<path d="M63.8381 2.73555C61.0339 1.30644 57.9324 0.558703 54.7852 0.553011C51.6379 0.547319 48.5337 1.28383 45.7244 2.70279C40.7381 5.5821 40.7634 10.265 45.7811 13.1623C48.5853 14.5915 51.6868 15.3393 54.8341 15.3449C57.9813 15.3506 61.0855 14.6141 63.8948 13.1951C68.8811 10.3158 68.8557 5.63289 63.8381 2.73555ZM48.8486 11.391C45.5358 9.47806 45.5191 6.38623 48.8112 4.48533C50.666 3.54843 52.7155 3.06213 54.7934 3.06588C56.8713 3.06962 58.9191 3.56331 60.7705 4.50688C64.0833 6.41985 64.1001 9.51167 60.808 11.4126C58.9532 12.3495 56.9037 12.8358 54.8258 12.832C52.7478 12.8283 50.7 12.3346 48.8486 11.391Z" fill="url(#paint14_linear_417_11460)"/>
<path opacity="0.08" d="M189.759 270.66C189.678 267.537 187.597 264.434 183.483 262.058C175.098 257.216 161.491 257.22 153 262.042V267.615L161.711 272.734V272.656C165.31 270.61 171.08 270.608 174.636 272.661C175.116 272.935 175.562 273.265 175.964 273.644C175.55 274.037 175.09 274.378 174.595 274.662C174.574 274.674 174.552 274.683 174.531 274.695V280.189L183.242 285.308C183.289 285.282 183.34 285.259 183.387 285.233C187.706 282.739 189.832 279.462 189.77 276.204L189.759 270.66Z" fill="#FBAC93"/>
<g opacity="0.32">
<path d="M183.483 258.551C186.322 260.19 188.195 262.176 189.113 264.275L189.776 261.588V267.226L189.77 267.203C189.832 270.461 187.706 273.738 183.387 276.232C183.34 276.258 183.289 276.281 183.242 276.307L174.531 271.188C174.552 271.177 174.574 271.167 174.595 271.155C178.19 269.079 178.209 265.723 174.636 263.66C171.08 261.607 165.31 261.609 161.711 263.655L153 258.536C161.491 253.713 175.098 253.709 183.483 258.551Z" fill="#FBAC93"/>
<path d="M174.595 265.661C178.19 263.584 178.209 260.229 174.636 258.166C171.08 256.113 165.31 256.115 161.711 258.16L153 253.041C161.491 248.219 175.098 248.215 183.483 253.057C191.911 257.924 191.868 265.84 183.387 270.737C183.34 270.764 183.289 270.786 183.242 270.813L174.531 265.694C174.552 265.682 174.574 265.672 174.595 265.661Z" fill="#E98A6D"/>
<path d="M174.531 265.694V271.188L183.242 276.307V270.813L174.531 265.694Z" fill="#FDD2C5"/>
<path d="M153 253.12V258.614L161.711 263.733V258.239L153 253.12Z" fill="#FDD2C5"/>
</g>
<path d="M183.483 248.679C186.322 250.318 188.195 252.304 189.113 254.403L189.776 251.715V257.354L189.77 257.331C189.832 260.589 187.706 263.865 183.387 266.359C183.34 266.386 183.289 266.408 183.242 266.435L174.531 261.316C174.552 261.304 174.574 261.295 174.595 261.283C178.19 259.206 178.209 255.851 174.636 253.788C171.08 251.735 165.31 251.737 161.711 253.782L153 248.664C161.491 243.841 175.098 243.837 183.483 248.679Z" fill="#FBAC93"/>
<path d="M174.595 255.788C178.19 253.712 178.209 250.357 174.636 248.294C171.08 246.241 165.31 246.243 161.711 248.288L153 243.169C161.491 238.347 175.098 238.343 183.483 243.185C191.911 248.052 191.868 255.968 183.387 260.865C183.34 260.892 183.289 260.914 183.242 260.941L174.531 255.822C174.552 255.81 174.574 255.8 174.595 255.788Z" fill="#E98A6D"/>
<path d="M174.531 255.822V261.316L183.242 266.435V260.941L174.531 255.822Z" fill="#FDD2C5"/>
<path d="M153 243.247V248.742L161.711 253.861V248.367L153 243.247Z" fill="#FDD2C5"/>
<defs>
<linearGradient id="paint0_linear_417_11460" x1="95.5" y1="316.553" x2="95.5" y2="489.553" gradientUnits="userSpaceOnUse">
<stop stop-color="#FBA4FF"/>
<stop offset="1" stop-color="#FFFBFF" stop-opacity="0"/>
</linearGradient>
<linearGradient id="paint1_linear_417_11460" x1="4.5" y1="133.553" x2="4.5" y2="306.553" gradientUnits="userSpaceOnUse">
<stop stop-color="#FBA4FF"/>
<stop offset="1" stop-color="#FFFBFF" stop-opacity="0"/>
</linearGradient>
<linearGradient id="paint2_linear_417_11460" x1="916.5" y1="182.553" x2="916.5" y2="355.553" gradientUnits="userSpaceOnUse">
<stop stop-color="#FBA4FF"/>
<stop offset="1" stop-color="#FFFBFF" stop-opacity="0"/>
</linearGradient>
<linearGradient id="paint3_linear_417_11460" x1="802.5" y1="283.553" x2="802.5" y2="406.553" gradientUnits="userSpaceOnUse">
<stop stop-color="#FBA4FF"/>
<stop offset="1" stop-color="#FFFBFF" stop-opacity="0"/>
</linearGradient>
<linearGradient id="paint4_linear_417_11460" x1="983.5" y1="49.553" x2="983.5" y2="222.553" gradientUnits="userSpaceOnUse">
<stop stop-color="#FBA4FF"/>
<stop offset="1" stop-color="#FFFBFF" stop-opacity="0"/>
</linearGradient>
<linearGradient id="paint5_linear_417_11460" x1="835" y1="307.368" x2="872" y2="307.368" gradientUnits="userSpaceOnUse">
<stop offset="0.2098" stop-color="#4C2CC4"/>
<stop offset="0.79959" stop-color="#556AC4"/>
</linearGradient>
<linearGradient id="paint6_linear_417_11460" x1="835.002" y1="303.262" x2="872" y2="303.262" gradientUnits="userSpaceOnUse">
<stop offset="0.17283" stop-color="#D2D2F7"/>
<stop offset="0.90551" stop-color="#A7A8F8"/>
</linearGradient>
<linearGradient id="paint7_linear_417_11460" x1="835" y1="317.121" x2="872" y2="317.121" gradientUnits="userSpaceOnUse">
<stop offset="0.17283" stop-color="#D2D2F7"/>
<stop offset="0.90551" stop-color="#A7A8F8"/>
</linearGradient>
<linearGradient id="paint8_linear_417_11460" x1="835" y1="299.341" x2="872" y2="299.341" gradientUnits="userSpaceOnUse">
<stop offset="0.2098" stop-color="#4C2CC4"/>
<stop offset="0.79959" stop-color="#556AC4"/>
</linearGradient>
<linearGradient id="paint9_linear_417_11460" x1="835.002" y1="295.235" x2="872" y2="295.235" gradientUnits="userSpaceOnUse">
<stop offset="0.05755" stop-color="#3CC4D3"/>
<stop offset="0.99968" stop-color="#589AEA"/>
</linearGradient>
<linearGradient id="paint10_linear_417_11460" x1="42" y1="16.3497" x2="67.6179" y2="16.3497" gradientUnits="userSpaceOnUse">
<stop offset="0.2098" stop-color="#4C2CC4"/>
<stop offset="0.79959" stop-color="#556AC4"/>
</linearGradient>
<linearGradient id="paint11_linear_417_11460" x1="42.0012" y1="13.5068" x2="67.618" y2="13.5068" gradientUnits="userSpaceOnUse">
<stop offset="0.17283" stop-color="#D2D2F7"/>
<stop offset="0.90551" stop-color="#A7A8F8"/>
</linearGradient>
<linearGradient id="paint12_linear_417_11460" x1="42" y1="23.1027" x2="67.618" y2="23.1027" gradientUnits="userSpaceOnUse">
<stop offset="0.17283" stop-color="#D2D2F7"/>
<stop offset="0.90551" stop-color="#A7A8F8"/>
</linearGradient>
<linearGradient id="paint13_linear_417_11460" x1="42" y1="10.792" x2="67.6179" y2="10.792" gradientUnits="userSpaceOnUse">
<stop offset="0.2098" stop-color="#4C2CC4"/>
<stop offset="0.79959" stop-color="#556AC4"/>
</linearGradient>
<linearGradient id="paint14_linear_417_11460" x1="42.0012" y1="7.94898" x2="67.618" y2="7.94898" gradientUnits="userSpaceOnUse">
<stop offset="0.17283" stop-color="#D2D2F7"/>
<stop offset="0.90551" stop-color="#A7A8F8"/>
</linearGradient>
</defs>
</svg>
