<svg width="221" height="220" viewBox="0 0 221 220" fill="none" xmlns="http://www.w3.org/2000/svg">
<g clip-path="url(#clip0_417_12131)">
<g style="mix-blend-mode:multiply" opacity="0.7">
<path d="M161.617 210.284C161.857 210.316 162.091 210.391 162.304 210.507L117.868 184.754C117.653 184.639 117.421 184.563 117.18 184.531C115.734 184.453 114.286 184.67 112.927 185.17L101.782 178.71C102.183 178.492 102.612 178.3 103.004 178.073C123.939 165.909 123.827 146.12 102.763 133.961C91.7895 127.626 77.261 124.623 62.8979 124.89C48.53 124.624 34.0309 127.627 23.1226 133.965C2.19576 146.125 2.30716 165.913 23.3709 178.073C34.3454 184.408 48.8749 187.411 63.2378 187.145C72.4445 187.357 81.6269 186.111 90.4448 183.455L102.981 190.721C102.555 191.117 102.184 191.568 101.877 192.061C101.465 192.795 101.506 193.37 102.052 193.687L146.49 219.44C146.703 219.555 146.936 219.63 147.177 219.663C149.516 220.023 154.626 218.227 158.615 215.642C160.143 214.766 161.462 213.569 162.481 212.132C163.023 211.163 162.779 210.47 161.617 210.284ZM63.2353 186.595C50.2709 186.35 37.4162 183.401 27.5133 177.684C6.8226 165.74 6.7131 146.299 27.2697 134.354C37.1113 128.636 49.9318 125.686 62.8917 125.442C75.856 125.687 88.7093 128.637 98.6131 134.354C119.304 146.298 119.421 165.735 98.8568 177.684C89.0186 183.401 76.1971 186.35 63.2353 186.595Z" fill="#52017B"/>
</g>
<g style="mix-blend-mode:multiply" opacity="0.7">
<path d="M55.2524 144.036L24.042 161.027L52.8683 177.668H68.6482L55.2524 144.036Z" fill="#52017B"/>
</g>
<path d="M133.816 140.071L68.6467 177.692L34.9136 158.218V146.818L133.816 128.671V140.071Z" fill="#EBDAED"/>
<path opacity="0.9" d="M107.341 133.529V155.354L131.808 141.231V129.041L107.341 133.529Z" fill="#BF90B2"/>
<g style="mix-blend-mode:multiply" opacity="0.7">
<path d="M120.602 131.096L107.341 133.529V155.354L120.313 147.866V134.18C120.313 133.815 120.326 133.739 120.602 133.677V131.096Z" fill="#E0AACC"/>
</g>
<path d="M100.232 142.854L86.9729 145.287V167.112L99.9449 159.624V145.938C99.9449 145.572 99.9569 145.497 100.232 145.436V142.854Z" fill="#A091BC"/>
<path d="M133.691 128.693V140.144L133.816 140.071V128.671L133.691 128.693Z" fill="#EBDAED"/>
<g style="mix-blend-mode:multiply">
<path d="M65.7823 139.233L34.9136 146.818V158.218L68.6467 177.693V166.291L65.7823 139.233Z" fill="#E2D4DD"/>
</g>
<path d="M133.816 128.671L68.6467 166.291L34.9136 146.818L100.081 109.198L133.816 128.671Z" fill="#FEF0FF"/>
<path d="M120.186 136.536L86.9239 155.787L53.1777 136.304L90.9163 114.469L105.857 123.095L101.387 125.683L120.186 136.536Z" fill="#D9CAED"/>
<path opacity="0.2" d="M73.2311 127.995L63.605 147.439L63.4161 147.33L73.042 127.886L73.2311 127.995ZM71.1514 126.794L61.5255 146.239L61.7144 146.348L71.3402 126.904L71.1514 126.794ZM74.9328 128.978L65.3068 148.422L65.4958 148.531L75.1217 129.086L74.9328 128.978ZM76.8234 130.069L67.1976 149.513L67.3865 149.622L77.0123 130.178L76.8234 130.069ZM68.3659 127.511L59.6347 145.147L59.8238 145.257L68.7063 127.314L68.3659 127.511ZM78.7141 131.16L69.0882 150.604L69.2771 150.714L78.9029 131.269L78.7141 131.16ZM61.5525 131.452L55.8534 142.965L56.0424 143.073L61.8928 131.256L61.5525 131.452ZM51.3323 137.366L50.1814 139.69L50.3703 139.8L51.6727 137.169L51.3323 137.366ZM54.739 135.394L52.072 140.782L52.2611 140.891L55.0794 135.197L54.739 135.394ZM58.1457 133.424L53.9628 141.873L54.1517 141.982L58.4861 133.227L58.1457 133.424ZM64.9592 129.482L57.7441 144.056L57.933 144.165L65.2995 129.285L64.9592 129.482ZM80.6049 132.252L70.9788 151.696L71.1677 151.805L80.7935 132.361L80.6049 132.252ZM101.402 144.257L99.2221 148.662L99.5624 148.465L101.591 144.366L101.402 144.257ZM97.6209 142.074L92.4075 152.606L92.7478 152.408L97.8095 142.184L97.6209 142.074ZM95.7299 140.983L89.0006 154.577L89.3409 154.38L95.9193 141.092L95.7299 140.983ZM103.293 145.349L102.629 146.69L102.969 146.493L103.482 145.458L103.293 145.349ZM99.5118 143.166L95.8144 150.634L96.1547 150.437L99.7005 143.275L99.5118 143.166ZM93.8397 139.892L85.5929 156.55L85.9332 156.353L94.0283 140L93.8397 139.892ZM86.2765 135.526L76.6509 154.97L76.8398 155.079L86.4659 135.635L86.2765 135.526ZM84.3863 134.435L74.7603 153.879L74.9492 153.988L84.5749 134.543L84.3863 134.435ZM82.4955 133.343L72.8697 152.788L73.0585 152.896L82.6843 133.452L82.4955 133.343ZM90.0585 137.709L80.4321 157.153L80.6212 157.263L90.2471 137.818L90.0585 137.709ZM88.1675 136.617L78.5415 156.061L78.7304 156.171L88.3561 136.727L88.1675 136.617ZM91.9487 138.8L82.323 158.245L82.4936 158.343C82.5264 158.324 92.1373 138.909 92.1373 138.909L91.9487 138.8Z" fill="#7F7799"/>
<path opacity="0.6" d="M112.114 119.481L89.7264 132.426L74.7854 123.801L97.1748 110.857L112.114 119.481Z" fill="#E0AACC"/>
<path opacity="0.6" d="M131.878 129.836L108.579 143.285L103.769 140.508L124.76 128.39L131.878 129.836Z" fill="#E0AACC"/>
<path d="M80.7329 127.335C74.5286 130.915 74.5287 136.692 80.7009 140.255C84.1644 142.012 87.9931 142.927 91.8769 142.927C95.76 142.927 99.5895 142.012 103.052 140.255C103.082 140.237 80.7329 127.335 80.7329 127.335Z" fill="#D4A8C6"/>
<path d="M108.896 143.103L108.019 143.609L74.2517 124.118L75.1306 123.611L108.896 143.103Z" fill="#7F7799"/>
<path d="M52.1927 144.175L42.8991 149.538L38.1536 146.8L47.4472 141.435L52.1927 144.175Z" fill="#3263A8"/>
<path d="M84.4429 123.81C84.1765 123.941 83.9426 124.128 83.7555 124.358C83.5691 124.589 83.4355 124.857 83.3631 125.144C83.3163 125.144 81.4126 123.737 81.4126 123.737C81.1573 123.549 81.1923 123.476 81.413 123.348L84.3041 121.679L83.7925 121.062L83.6415 121.042L79.7632 123.281L79.7524 123.408L83.4099 125.788L83.8272 125.707C83.7819 125.423 83.8325 125.131 83.9713 124.879C84.1101 124.626 84.329 124.427 84.5938 124.313C85.1733 124.045 85.814 123.931 86.4508 123.984C87.0877 124.037 87.7004 124.254 88.2286 124.615C89.4246 125.305 89.8427 126.11 88.8323 126.693C87.9781 127.091 87.0009 127.135 86.1143 126.813C86.017 126.777 85.9136 126.76 85.8094 126.765C85.7061 126.769 85.6042 126.795 85.5106 126.84C85.4412 126.87 85.3831 126.92 85.3416 126.983C85.3001 127.046 85.2782 127.12 85.2782 127.195C85.2782 127.27 85.3001 127.344 85.3416 127.408C85.3831 127.47 85.4412 127.52 85.5106 127.55C86.1241 127.721 86.767 127.758 87.3963 127.658C88.0249 127.559 88.6255 127.325 89.156 126.974C91.0719 125.868 90.7821 124.695 89.3084 123.844C88.5712 123.413 87.7344 123.182 86.8802 123.176C86.026 123.17 85.1862 123.389 84.4429 123.81Z" fill="#6B6597"/>
<path d="M87.5691 118.614C85.6532 119.72 86.6636 121.094 88.9855 122.435C91.3073 123.775 93.6872 124.358 95.6031 123.252C97.519 122.146 96.5094 120.772 94.1875 119.432C91.8649 118.091 89.485 117.508 87.5691 118.614ZM95.1979 123.018C94.0947 123.655 92.0626 122.844 90.1694 121.751C88.2769 120.659 86.8726 119.486 87.9758 118.849C89.079 118.212 91.1104 119.023 93.0028 120.115C94.8961 121.208 96.3011 122.381 95.1979 123.018Z" fill="#6B6597"/>
<path d="M93.7266 115.06C91.8107 116.166 92.8211 117.54 95.1429 118.881C97.4648 120.221 99.8447 120.804 101.761 119.698C103.676 118.592 102.666 117.218 100.344 115.878C98.0224 114.537 95.6425 113.954 93.7266 115.06ZM101.355 119.464C100.252 120.1 98.2194 119.289 96.3269 118.197C94.4344 117.104 93.0301 115.931 94.1333 115.295C95.2357 114.658 97.2678 115.469 99.1603 116.561C101.053 117.654 102.458 118.827 101.355 119.464Z" fill="#6B6597"/>
<path d="M67.2026 161.107C67.0334 161.19 66.8843 161.309 66.7657 161.456C66.6472 161.602 66.562 161.773 66.5162 161.955C66.4864 161.955 65.2765 161.06 65.2765 161.06C65.1143 160.941 65.1366 160.895 65.2768 160.814L67.1143 159.753L66.789 159.361L66.6931 159.348L64.2283 160.771C64.2214 160.852 66.5457 162.364 66.5457 162.364L66.8112 162.313C66.7822 162.132 66.8144 161.947 66.9026 161.786C66.9907 161.626 67.1299 161.5 67.2981 161.427C67.6668 161.256 68.0736 161.184 68.4786 161.217C68.8836 161.251 69.2729 161.389 69.6084 161.619C70.3684 162.057 70.634 162.569 69.9921 162.939C69.4491 163.193 68.828 163.22 68.2648 163.016C68.203 162.993 68.1372 162.982 68.0711 162.985C68.0052 162.988 67.9405 163.004 67.881 163.033C67.8371 163.052 67.7999 163.084 67.7737 163.124C67.7475 163.164 67.7335 163.211 67.7335 163.259C67.7335 163.307 67.7475 163.353 67.7737 163.393C67.7999 163.433 67.8371 163.465 67.881 163.485C68.2709 163.592 68.6796 163.616 69.0793 163.552C69.4791 163.49 69.8606 163.341 70.1981 163.118C71.4159 162.416 71.2314 161.669 70.2946 161.129C69.8264 160.855 69.2942 160.708 68.7515 160.704C68.2088 160.701 67.6746 160.839 67.2026 161.107Z" fill="#F4C245"/>
<path d="M69.1898 157.805C67.9721 158.508 68.6141 159.381 70.09 160.233C70.683 160.683 71.3844 160.968 72.123 161.059C72.8616 161.15 73.6112 161.044 74.2958 160.753C75.5135 160.05 74.8716 159.177 73.3957 158.325C72.8027 157.875 72.1013 157.59 71.3627 157.499C70.6241 157.408 69.8745 157.513 69.1898 157.805ZM74.038 160.604C73.3372 161.008 72.0453 160.493 70.8424 159.798C69.6396 159.104 68.7473 158.359 69.4481 157.954C70.1494 157.549 71.4404 158.065 72.6433 158.759C73.8462 159.453 74.7392 160.199 74.038 160.604Z" fill="#F4C245"/>
<path d="M73.1023 155.546C71.8848 156.249 72.5267 157.122 74.0024 157.974C74.5954 158.424 75.2968 158.708 76.0355 158.799C76.7741 158.891 77.5238 158.785 78.2085 158.494C79.426 157.791 78.784 156.918 77.3083 156.066C76.7152 155.616 76.0138 155.331 75.2752 155.24C74.5365 155.148 73.7869 155.254 73.1023 155.546ZM77.9507 158.344C77.2497 158.75 75.9579 158.234 74.755 157.539C73.5522 156.845 72.6597 156.1 73.3606 155.695C74.0616 155.29 75.3527 155.806 76.5556 156.5C77.7586 157.195 78.6515 157.94 77.9507 158.344Z" fill="#F4C245"/>
<path d="M106.968 115.076L105.908 117.184L105.542 117.123L106.603 115.014L106.968 115.076ZM107.738 115.67L106.678 117.778L107.043 117.84L108.104 115.731L107.738 115.67ZM108.875 116.326L107.815 118.434L108.18 118.496L109.24 116.387L108.875 116.326ZM110.011 116.982L108.95 119.09L109.315 119.151L110.376 117.043L110.011 116.982ZM111.147 117.638L110.087 119.746L110.452 119.807L111.512 117.699L111.147 117.638ZM112.282 118.293L111.222 120.402L111.587 120.463L112.648 118.355L112.282 118.293ZM113.419 118.949L112.359 121.058L112.724 121.119L113.784 119.01L113.419 118.949ZM114.555 119.605L113.494 121.713L113.859 121.775L114.92 119.666L114.555 119.605ZM115.691 120.261L114.631 122.369L114.996 122.43L116.056 120.322L115.691 120.261Z" fill="#6B6597"/>
<path d="M42.8971 144.474C42.654 144.557 42.443 144.713 42.2935 144.922C42.144 145.13 42.0637 145.38 42.0637 145.637C42.0637 145.893 42.144 146.144 42.2935 146.352C42.443 146.561 42.654 146.718 42.8971 146.8C43.5219 147.116 44.2123 147.282 44.9126 147.282C45.6129 147.282 46.3033 147.116 46.9281 146.8C47.1712 146.718 47.3824 146.561 47.532 146.353C47.6816 146.144 47.7619 145.893 47.762 145.637C47.7621 145.38 47.6818 145.13 47.5323 144.921C47.3829 144.713 47.1718 144.556 46.9287 144.474C46.3038 144.157 45.6133 143.992 44.9129 143.992C44.2125 143.992 43.5219 144.157 42.8971 144.474ZM46.6645 146.648C46.1215 146.923 45.5213 147.067 44.9126 147.067C44.3039 147.067 43.7038 146.923 43.1608 146.648C42.9495 146.576 42.766 146.44 42.6361 146.259C42.5061 146.078 42.4363 145.86 42.4363 145.637C42.4363 145.414 42.5061 145.196 42.6361 145.015C42.766 144.833 42.9495 144.698 43.1608 144.626C43.7039 144.351 44.3041 144.207 44.9129 144.207C45.5217 144.207 46.1219 144.351 46.6651 144.625C46.8763 144.698 47.0597 144.833 47.1896 145.015C47.3195 145.196 47.3894 145.414 47.3893 145.637C47.3892 145.86 47.3193 146.078 47.1893 146.259C47.0593 146.44 46.8757 146.576 46.6645 146.648Z" fill="#F4C245"/>
<path d="M73.2276 126.664L74.6857 126.95L75.9198 126.418L75.9002 127.307L77.1574 127.82L75.6871 128.084L75.23 128.933L74.3409 128.207L72.801 128.219L73.7221 127.506L73.2276 126.664ZM68.643 132.613L67.7222 133.325L69.2618 133.314L70.1509 134.039L70.6081 133.191L72.0786 132.927L70.8212 132.413L70.8409 131.524L69.6069 132.056L68.1485 131.771L68.643 132.613ZM68.643 138.325L67.7222 139.038L69.2618 139.027L70.1509 139.753L70.6081 138.903L72.0786 138.64L70.8212 138.127L70.8409 137.238L69.6069 137.769L68.1485 137.484L68.643 138.325ZM73.7221 143.432L72.801 144.145L74.3409 144.133L75.23 144.859L75.6871 144.01L77.1574 143.746L75.9002 143.233L75.9198 142.344L74.6857 142.876L73.2276 142.59L73.7221 143.432ZM82.5675 146.364L81.6466 147.076L83.1865 147.065L84.0754 147.791L84.5327 146.942L86.0034 146.678L84.7455 146.165L84.7651 145.276L83.5314 145.807L82.0731 145.522L82.5675 146.364ZM92.4656 146.364L91.5442 147.076L93.0836 147.065L93.9732 147.791L94.4297 146.942L95.9004 146.678L94.6433 146.165L94.6629 145.276L93.4292 145.807L91.9706 145.522L92.4656 146.364ZM101.311 143.432L100.39 144.145L101.929 144.133L102.818 144.859L103.276 144.01L104.746 143.746L103.489 143.233L103.509 142.344L102.274 142.876L100.816 142.59L101.311 143.432Z" fill="#E8AB31"/>
<path d="M77.2834 122.366L61.4712 131.493L95.2763 151.007L111.089 141.88L77.2834 122.366Z" fill="#FEF0FF"/>
<path d="M111.089 153.207L95.2749 162.326V151.002L111.089 141.881V153.207Z" fill="#EBDAED"/>
<path d="M109.349 142.886L75.543 123.372L77.5228 122.229L111.328 141.744V153.068L109.349 154.211V142.886Z" fill="#B142CC"/>
<path d="M94.9579 151.191L61.1523 131.677L63.1321 130.534L96.9372 150.049V161.376L94.9579 162.517V151.191Z" fill="#B142CC"/>
<path d="M109.349 142.886L111.329 141.744V153.068L109.349 154.211V142.886Z" fill="#8D2CA7"/>
<path d="M94.958 151.191L96.9373 150.049V161.376L94.958 162.517V151.191Z" fill="#8D2CA7"/>
<g style="mix-blend-mode:multiply">
<path d="M62.3084 131.003L38.6719 144.647L58.7588 156.244H69.4723L62.3084 131.003Z" fill="#E2D4DD"/>
</g>
<path d="M69.4724 156.244L125.706 123.784V115.275L69.4724 128.29V156.244Z" fill="#D8D2B8"/>
<path d="M41.6865 140.203L69.4726 156.244V128.29L41.6865 131.696V140.203Z" fill="#B7B091"/>
<path d="M125.703 115.273L69.4801 147.728L41.7073 131.696L97.9287 99.2415L125.703 115.273Z" fill="#FFF9E1"/>
<path d="M43.7986 132.019L68.8038 146.453L123.493 114.883L98.488 100.448L43.7986 132.019ZM118.154 112.618C119.332 113.298 119.314 114.411 118.115 115.103L69.185 143.349C68.5197 143.69 67.7832 143.871 67.0354 143.875C66.2874 143.878 65.5492 143.706 64.8804 143.371L49.2546 134.351C48.0766 133.67 48.0939 132.558 49.2932 131.866L98.2231 103.62C98.8886 103.278 99.6251 103.098 100.373 103.094C101.121 103.091 101.859 103.263 102.528 103.598L118.154 112.618Z" fill="#687A51"/>
<path d="M71.2209 116.278C65.7796 119.419 66.9271 125.192 73.7788 129.147C80.6303 133.103 90.6311 133.765 96.0724 130.624C101.514 127.483 100.366 121.71 93.5144 117.755C86.6628 113.8 76.6621 113.137 71.2209 116.278ZM95.9336 130.544C90.57 133.639 80.695 132.977 73.9203 129.066C67.1456 125.155 65.9968 119.454 71.36 116.358C76.7232 113.263 86.5979 113.926 93.3725 117.837C100.148 121.747 101.296 127.448 95.9336 130.544Z" fill="#A5AA9F"/>
<path d="M93.0896 118C99.7216 121.828 100.87 127.372 95.6552 130.383C90.4396 133.394 80.8355 132.73 74.2033 128.902C67.5712 125.074 66.4228 119.529 71.6379 116.519C76.8532 113.508 86.4577 114.171 93.0896 118Z" fill="#A5AA9F"/>
<path d="M91.7133 118.794C97.3794 122.065 98.3604 126.801 93.9046 129.373C89.4495 131.945 81.245 131.378 75.5793 128.108C69.9136 124.837 68.9324 120.101 73.3876 117.529C77.843 114.957 86.0479 115.524 91.7133 118.794Z" fill="#FFF9E1"/>
<path d="M101.305 117.221L99.428 118.304L100.159 118.726L102.037 117.644L101.305 117.221Z" fill="#687A51"/>
<path d="M102.296 116.649L103.027 117.071L111.098 112.411L110.369 111.99L102.296 116.649Z" fill="#687A51"/>
<path d="M65.11 138.115L63.2327 139.198L63.9635 139.62L65.8389 138.538L65.11 138.115Z" fill="#687A51"/>
<path d="M66.1011 137.544L66.8319 137.965L74.9031 133.305L74.1723 132.884L66.1011 137.544Z" fill="#687A51"/>
<path d="M50.7556 133.032L51.7597 133.611L61.5109 127.982L60.5067 127.403L50.7556 133.032Z" fill="#687A51"/>
<path d="M90.2139 110.253L91.2182 110.834L100.967 105.205L99.963 104.626L90.2139 110.253Z" fill="#A5AA9F"/>
<path d="M112.266 116.665L110.072 115.399C109.786 115.588 109.51 115.792 109.244 116.01L109.361 116.077L109.645 115.969C109.696 115.944 109.753 115.933 109.81 115.939C109.866 115.944 109.92 115.965 109.965 116L111.691 116.996C111.811 117.065 111.796 117.105 111.712 117.162L111.475 117.324L111.618 117.406L112.975 116.622L112.833 116.54L112.552 116.676C112.509 116.703 112.458 116.717 112.407 116.715C112.356 116.712 112.306 116.695 112.266 116.665Z" fill="#687A51"/>
<path d="M111.885 114.318C111.173 114.729 111.547 115.216 112.23 115.611C112.553 115.838 112.93 115.976 113.323 116.011C113.717 116.046 114.112 115.977 114.47 115.811C115.181 115.4 114.809 114.912 114.124 114.517C113.801 114.29 113.425 114.152 113.032 114.117C112.638 114.082 112.242 114.151 111.885 114.318ZM114.298 115.711C113.986 115.891 113.257 115.51 112.831 115.264C112.405 115.018 111.744 114.597 112.057 114.417C112.368 114.237 113.097 114.619 113.524 114.864C113.949 115.11 114.61 115.531 114.298 115.711Z" fill="#687A51"/>
<path d="M114.016 113.088C113.305 113.498 113.678 113.986 114.361 114.381C114.684 114.608 115.061 114.746 115.454 114.781C115.848 114.816 116.243 114.747 116.601 114.58C117.312 114.169 116.94 113.682 116.256 113.287C115.933 113.06 115.556 112.922 115.162 112.887C114.769 112.852 114.374 112.921 114.016 113.088ZM116.429 114.481C116.118 114.661 115.388 114.28 114.963 114.034C114.536 113.788 113.876 113.367 114.188 113.187C114.5 113.007 115.229 113.388 115.654 113.634C116.081 113.88 116.741 114.301 116.429 114.481Z" fill="#687A51"/>
<path d="M93.6217 105.558L92.1532 104.71C91.9608 104.837 91.776 104.973 91.5986 105.119C91.6764 105.164 91.8665 105.092 91.8665 105.092C91.9012 105.075 91.939 105.068 91.9767 105.072C92.0144 105.075 92.0506 105.089 92.0808 105.112L93.2368 105.78C93.3176 105.826 93.307 105.852 93.2504 105.891L93.0919 105.999L93.187 106.054L94.097 105.529L94.0012 105.474L93.8133 105.566C93.7847 105.584 93.7507 105.592 93.7167 105.591C93.682 105.59 93.6496 105.578 93.6217 105.558Z" fill="#FFF9E1"/>
<path d="M93.3672 103.986C92.8903 104.261 93.1401 104.588 93.5981 104.852C93.8146 105.004 94.0667 105.097 94.33 105.12C94.5934 105.144 94.8582 105.097 95.0982 104.986C95.5743 104.711 95.3246 104.384 94.8665 104.12C94.6507 103.968 94.3979 103.875 94.1346 103.852C93.8712 103.828 93.6064 103.875 93.3672 103.986ZM94.9827 104.919C94.7745 105.04 94.2855 104.785 94.0003 104.62C93.715 104.455 93.2729 104.173 93.4819 104.053C93.6909 103.932 94.1791 104.188 94.4643 104.352C94.7496 104.517 95.1917 104.799 94.9827 104.919Z" fill="#FFF9E1"/>
<path d="M94.7942 103.162C94.3173 103.437 94.5678 103.764 95.0251 104.028C95.2417 104.18 95.4945 104.273 95.7578 104.296C96.0212 104.32 96.286 104.273 96.5252 104.162C97.0014 103.887 96.7524 103.56 96.2943 103.296C96.0778 103.144 95.825 103.051 95.5624 103.028C95.299 103.005 95.0342 103.051 94.7942 103.162ZM96.4105 104.095C96.2015 104.216 95.7133 103.961 95.4281 103.796C95.1428 103.631 94.7007 103.35 94.9097 103.229C95.1179 103.108 95.6062 103.364 95.8914 103.529C96.1766 103.693 96.6196 103.975 96.4105 104.095Z" fill="#FFF9E1"/>
<path d="M50.8671 130.238L49.3986 129.39C49.2067 129.517 49.0216 129.654 48.8442 129.8C48.9217 129.845 49.1125 129.772 49.1125 129.772C49.1466 129.756 49.1846 129.749 49.2225 129.752C49.2603 129.756 49.2964 129.77 49.3266 129.793L50.4826 130.46C50.5627 130.507 50.5522 130.533 50.496 130.571L50.3377 130.68L50.4329 130.735L51.3423 130.21L51.2472 130.155L51.0591 130.246C51.03 130.264 50.9961 130.273 50.9619 130.272C50.9277 130.27 50.8947 130.259 50.8671 130.238Z" fill="#FFF9E1"/>
<path d="M50.6129 128.667C50.1364 128.942 50.3864 129.268 50.8442 129.533C51.0604 129.685 51.3129 129.777 51.5763 129.801C51.8396 129.824 52.1045 129.778 52.3442 129.666C52.8203 129.391 52.5706 129.064 52.1128 128.8C51.8966 128.648 51.6441 128.556 51.3807 128.533C51.1174 128.509 50.8525 128.555 50.6129 128.667ZM52.229 129.599C52.0202 129.72 51.5318 129.465 51.2467 129.301C50.9614 129.135 50.5191 128.854 50.7279 128.733C50.9368 128.612 51.4249 128.868 51.7102 129.033C51.9954 129.197 52.4378 129.479 52.229 129.599Z" fill="#FFF9E1"/>
<path d="M52.0395 127.843C51.5632 128.118 51.8132 128.444 52.2709 128.709C52.4871 128.861 52.7395 128.954 53.0029 128.977C53.2662 129 53.5312 128.954 53.7708 128.843C54.2471 128.567 53.9975 128.241 53.5395 127.976C53.3233 127.825 53.0707 127.732 52.8074 127.709C52.544 127.685 52.2792 127.731 52.0395 127.843ZM53.6558 128.776C53.447 128.897 52.9586 128.641 52.6733 128.477C52.3882 128.312 51.946 128.03 52.1547 127.909C52.3635 127.789 52.8517 128.044 53.1368 128.209C53.4221 128.374 53.8646 128.655 53.6558 128.776Z" fill="#FFF9E1"/>
<path d="M71.2954 142.96L71.486 143.07C71.6397 143.159 71.6376 143.304 71.481 143.395L69.6573 144.447C69.5706 144.492 69.4746 144.515 69.377 144.516C69.2794 144.517 69.1831 144.494 69.0959 144.45L68.9053 144.34C68.8738 144.329 68.8461 144.309 68.8259 144.283C68.8058 144.256 68.7939 144.225 68.792 144.191C68.7899 144.158 68.7979 144.125 68.8148 144.096C68.8317 144.068 68.8567 144.045 68.8867 144.031L69.13 143.864L66.8894 142.569L66.5617 142.693C66.4814 142.722 66.396 142.735 66.3105 142.73C66.225 142.725 66.1416 142.704 66.065 142.665L65.9101 142.576C65.7738 142.497 65.7582 142.372 65.8733 142.28L66.8989 141.463C66.9877 141.404 67.0909 141.37 67.1972 141.366C67.3307 141.349 67.4661 141.37 67.5877 141.427L70.4687 143.091L70.7595 142.95C70.844 142.912 70.9359 142.893 71.0286 142.894C71.1213 142.897 71.2124 142.919 71.2954 142.96ZM75.8916 138.592C77.1718 139.33 77.3391 140.082 76.3507 140.652C75.9644 140.858 75.5392 140.982 75.1024 141.014C74.6657 141.047 74.227 140.987 73.8144 140.84C74.3088 141.375 74.2102 141.888 73.4885 142.305C72.9235 142.581 72.2952 142.702 71.668 142.655C71.0407 142.609 70.4372 142.396 69.9192 142.04C68.6395 141.3 68.4721 140.55 69.4605 139.979C69.8468 139.773 70.272 139.65 70.7087 139.617C71.1455 139.585 71.5842 139.644 71.9967 139.791C71.5026 139.257 71.601 138.743 72.3226 138.327C72.8876 138.051 73.5159 137.93 74.143 137.976C74.7702 138.023 75.3736 138.235 75.8916 138.592Z" fill="#FFF9E1"/>
<path d="M70.2502 143.291L67.3048 141.591C66.9202 141.845 66.5492 142.119 66.1934 142.412L66.3487 142.501L66.731 142.357C66.7994 142.323 66.8758 142.309 66.9517 142.317C67.0276 142.323 67.1 142.352 67.1607 142.398L69.479 143.736C69.6396 143.829 69.6185 143.882 69.506 143.958L69.1885 144.176L69.3793 144.286L71.2029 143.234L71.0122 143.124L70.635 143.307C70.5766 143.343 70.5088 143.361 70.4402 143.358C70.3717 143.355 70.3055 143.332 70.2502 143.291Z" fill="#A5AA9F"/>
<path d="M69.7386 140.14C68.7831 140.691 69.2845 141.346 70.2025 141.876C70.636 142.182 71.1424 142.367 71.6707 142.414C72.1988 142.461 72.73 142.368 73.2107 142.144C74.1657 141.593 73.6651 140.938 72.7465 140.408C72.313 140.103 71.8066 139.917 71.2786 139.87C70.7504 139.823 70.2193 139.916 69.7386 140.14ZM72.9798 142.011C72.5609 142.252 71.5816 141.741 71.0095 141.41C70.4375 141.08 69.5505 140.515 69.9695 140.273C70.3882 140.031 71.3673 140.544 71.9392 140.874C72.5112 141.204 73.3986 141.769 72.9798 142.011Z" fill="#A5AA9F"/>
<path d="M72.6008 138.488C71.6455 139.039 72.1468 139.694 73.065 140.224C73.4985 140.529 74.0049 140.715 74.533 140.762C75.0611 140.808 75.5922 140.716 76.0729 140.492C77.0281 139.941 76.5274 139.286 75.609 138.756C75.1754 138.45 74.669 138.265 74.1409 138.218C73.6128 138.171 73.0816 138.264 72.6008 138.488ZM75.8421 140.359C75.4233 140.6 74.4439 140.089 73.8719 139.758C73.2998 139.428 72.4129 138.863 72.8317 138.62C73.2506 138.379 74.2295 138.891 74.8015 139.222C75.3736 139.551 76.261 140.117 75.8421 140.359Z" fill="#A5AA9F"/>
<path d="M97.4736 110.669C95.763 111.656 95.7389 113.243 97.4186 114.213C98.3731 114.691 99.4257 114.937 100.493 114.931C101.56 114.926 102.61 114.669 103.559 114.181C105.269 113.194 105.294 111.607 103.614 110.637C102.66 110.16 101.606 109.914 100.54 109.919C99.4733 109.925 98.4229 110.181 97.4736 110.669ZM103.228 113.99C102.382 114.425 101.446 114.654 100.495 114.659C99.5442 114.664 98.6055 114.444 97.7559 114.019C96.258 113.154 96.2799 111.74 97.8049 110.86C98.65 110.425 99.5865 110.196 100.537 110.191C101.488 110.187 102.427 110.406 103.277 110.831C104.774 111.696 104.752 113.11 103.228 113.99Z" fill="#A5AA9F"/>
<path d="M61.2701 131.568C59.5595 132.555 59.5351 134.142 61.2151 135.112C62.169 135.59 63.222 135.836 64.2888 135.83C65.3556 135.825 66.406 135.568 67.3549 135.081C69.0654 134.093 69.0901 132.506 67.4098 131.536C66.4559 131.058 65.4028 130.813 64.3361 130.819C63.2694 130.824 62.219 131.08 61.2701 131.568ZM67.0243 134.89C66.1785 135.324 65.2422 135.553 64.2914 135.558C63.3406 135.563 62.4021 135.344 61.5519 134.918C60.0542 134.054 60.0762 132.639 61.6008 131.759C62.4465 131.324 63.3828 131.095 64.3337 131.09C65.2844 131.086 66.223 131.305 67.0732 131.731C68.5707 132.595 68.5489 134.009 67.0243 134.89Z" fill="#A5AA9F"/>
<path d="M100.168 111.011C100.103 111.122 100.012 111.215 99.9019 111.28C99.7918 111.346 99.6673 111.382 99.539 111.386L99.3767 111.408C99.2515 111.412 99.1285 111.446 99.0198 111.509C98.9119 111.572 98.8206 111.66 98.7542 111.767L98.7165 111.861C98.6508 111.968 98.5595 112.056 98.4509 112.119C98.3422 112.182 98.22 112.216 98.0947 112.22C97.7899 112.261 97.6872 112.459 97.8865 112.574L99.4635 113.485C99.6401 113.578 99.837 113.625 100.036 113.62L102.474 113.607L102.564 113.555L102.586 112.148C102.58 112.077 102.556 112.009 102.514 111.951C102.474 111.892 102.418 111.846 102.353 111.817L100.775 110.907C100.576 110.792 100.232 110.851 100.168 111.011Z" fill="#687A51"/>
<path d="M63.9464 131.92C63.8821 132.031 63.7907 132.124 63.6807 132.189C63.5708 132.255 63.4459 132.291 63.3179 132.295L63.1554 132.317C63.03 132.321 62.9075 132.355 62.7989 132.418C62.6903 132.481 62.599 132.57 62.5332 132.676L62.4956 132.77C62.4297 132.877 62.3384 132.965 62.2298 133.028C62.1212 133.091 61.9987 133.126 61.8734 133.129C61.5688 133.169 61.4661 133.368 61.6651 133.483L63.2425 134.394C63.4187 134.488 63.6157 134.534 63.815 134.528L66.2533 134.516L66.3426 134.464L66.3645 133.057C66.3589 132.986 66.3344 132.917 66.2935 132.859C66.2524 132.801 66.1965 132.755 66.1316 132.727L64.5536 131.815C64.3545 131.701 64.0105 131.76 63.9464 131.92Z" fill="#687A51"/>
<path d="M83.4227 121.771L82.2024 122.1L78.2629 119.826C79.3977 119.527 80.5977 119.591 81.6944 120.009C81.9005 120.08 82.1197 120.105 82.3365 120.083C82.5535 120.06 82.7629 119.991 82.9504 119.88C83.3209 119.666 84.1426 118.905 83.225 118.375C82.2402 118.104 81.2092 118.049 80.2012 118.211C79.1933 118.374 78.2321 118.752 77.3829 119.318L75.853 118.435L74.763 119.064L76.293 119.947C74.1309 121.284 73.4477 123.003 75.8572 124.394C77.9018 125.302 80.2208 125.374 82.3177 124.594L83.6936 124.219L88.1879 126.814C86.8455 127.136 85.4382 127.058 84.1396 126.59C83.8981 126.508 83.6431 126.478 83.3895 126.502C83.136 126.526 82.8911 126.605 82.6702 126.731C82.5188 126.802 82.3904 126.914 82.2996 127.055C82.2088 127.195 82.1593 127.358 82.1568 127.525C82.1543 127.693 82.1987 127.857 82.2852 128.001C82.3717 128.143 82.4967 128.259 82.646 128.335C83.296 128.71 85.6812 129.143 89.067 127.322L91.0561 128.469L92.1457 127.84L90.1566 126.692C91.948 125.658 93.4073 123.646 90.6727 122.045C89.5461 121.511 88.3222 121.211 87.0757 121.164C85.8298 121.116 84.587 121.323 83.4227 121.771ZM80.6913 122.486C80.143 122.714 79.5542 122.828 78.9606 122.821C78.3669 122.815 77.7807 122.688 77.2375 122.449C76.2816 121.897 76.2372 121.061 77.173 120.455L80.6913 122.486ZM89.2775 126.185L85.1469 123.8C86.5127 123.375 87.991 123.495 89.2707 124.135C90.3988 124.786 90.3098 125.589 89.2775 126.185Z" fill="#687A51"/>
<path d="M106.825 120.179L102.042 122.941L101.757 122.776L106.539 120.014L106.825 120.179Z" fill="#A5AA9F"/>
<path d="M82.5888 134.169L77.8072 136.93L77.5225 136.765L82.3041 134.006L82.5888 134.169Z" fill="#A5AA9F"/>
<path d="M75.9644 111.903L63.998 118.811L91.7971 134.858L103.764 127.949L75.9644 111.903Z" fill="#FEF0FF"/>
<path d="M103.764 136.522L91.7954 143.425V134.852L103.764 127.949V136.522Z" fill="#EBDAED"/>
<path d="M102.446 128.711L74.6465 112.662L76.1442 111.798L103.946 127.845V136.418L102.446 137.281V128.711Z" fill="#B142CC"/>
<path d="M91.5562 134.997L63.7568 118.95L65.2545 118.084L93.054 134.133V142.704L91.5562 143.57V134.997Z" fill="#B142CC"/>
<path d="M102.446 128.711L103.946 127.845V136.418L102.446 137.281V128.711Z" fill="#8D2CA7"/>
<path d="M91.5564 134.997L93.0542 134.133V142.704L91.5564 143.57V134.997Z" fill="#8D2CA7"/>
<path d="M140.091 100.456L140.068 108.49C140.09 100.828 135.043 93.1543 124.94 87.3224C104.865 75.7338 72.3024 75.7295 52.3505 87.3226C42.4425 93.0796 37.4829 100.632 37.4614 108.196L37.4843 100.162C37.5057 92.5984 42.4653 85.0463 52.3731 79.2892C72.3252 67.6961 104.887 67.7005 124.962 79.2889C135.065 85.121 140.113 92.7945 140.091 100.456Z" fill="url(#paint0_linear_417_12131)"/>
<mask id="mask0_417_12131" style="mask-type:luminance" maskUnits="userSpaceOnUse" x="37" y="76" width="104" height="60">
<path d="M52.6098 126.876C72.6846 138.464 105.255 138.464 125.199 126.876C145.151 115.282 145.037 96.4239 124.962 84.8355C104.888 73.247 72.3253 73.2426 52.3731 84.8357C32.429 96.4245 32.5351 115.287 52.6098 126.876Z" fill="white"/>
</mask>
<g mask="url(#mask0_417_12131)">
<path d="M69.6206 156.178L156.931 105.776V92.5665L69.6206 112.772V156.178Z" fill="#D8D2B8"/>
<path d="M26.4758 131.273L69.6203 156.178V112.772L26.4758 118.061V131.273Z" fill="#B7B091"/>
<path d="M156.927 92.5646L69.6338 142.956L26.5083 118.061L113.803 67.6713L156.927 92.5646Z" fill="#FFF9E1"/>
<path d="M29.7568 118.564L68.582 140.977L153.498 91.958L114.673 69.5456L29.7568 118.564ZM145.207 88.4413C147.036 89.4973 147.01 91.2246 145.147 92.2996L69.1738 136.156C68.1409 136.687 66.9975 136.967 65.8363 136.973C64.675 136.979 63.5286 136.711 62.4902 136.19L38.2284 122.185C36.3992 121.129 36.4261 119.402 38.2883 118.327L114.262 74.4705C115.295 73.9399 116.438 73.6602 117.599 73.6542C118.76 73.6482 119.907 73.916 120.945 74.4359L145.207 88.4413Z" fill="#687A51"/>
<path d="M72.3352 94.1242C63.8866 99.0014 65.668 107.965 76.3066 114.106C86.945 120.248 102.473 121.276 110.922 116.399C119.37 111.522 117.588 102.558 106.95 96.4171C96.3116 90.276 80.7835 89.2473 72.3352 94.1242ZM110.706 116.274C102.378 121.081 87.0454 120.052 76.5264 113.98C66.0075 107.907 64.2239 99.056 72.5511 94.2489C80.8784 89.4418 96.2112 90.4717 106.73 96.5441C117.249 102.616 119.033 111.467 110.706 116.274Z" fill="#A5AA9F"/>
<path d="M106.291 96.7976C116.588 102.742 118.372 111.351 110.274 116.025C102.176 120.7 87.2642 119.67 76.9662 113.726C66.6686 107.781 64.8851 99.1729 72.983 94.4983C81.0806 89.8239 95.9932 90.8533 106.291 96.7976Z" fill="#A5AA9F"/>
<path d="M111.776 109.217C112.97 103.137 104.917 96.4377 93.7898 94.2533C82.6625 92.0689 72.6743 95.2266 71.4804 101.306C70.2865 107.386 78.339 114.085 89.4661 116.27C100.594 118.454 110.582 115.297 111.776 109.217Z" fill="#FFF9E1"/>
<path d="M119.046 95.588L116.134 97.2714L117.267 97.9244L120.181 96.2428L119.046 95.588Z" fill="#687A51"/>
<path d="M120.585 94.6999L121.721 95.3547L134.253 88.1198L133.119 87.465L120.585 94.6999Z" fill="#687A51"/>
<path d="M62.8473 128.032L59.9336 129.713L61.0668 130.367L63.9806 128.686L62.8473 128.032Z" fill="#687A51"/>
<path d="M64.385 127.143L65.5202 127.798L78.0522 120.563L76.9189 119.908L64.385 127.143Z" fill="#687A51"/>
<path d="M40.5605 120.136L42.119 121.037L57.2591 112.297L55.6988 111.398L40.5605 120.136Z" fill="#687A51"/>
<path d="M101.825 84.7698L103.386 85.6694L118.524 76.9315L116.965 76.0318L101.825 84.7698Z" fill="#A5AA9F"/>
<path d="M136.064 94.7246L132.659 92.7588L132.559 92.7625L131.374 93.7083L131.553 93.8119L131.996 93.6441C132.075 93.6051 132.163 93.5888 132.251 93.5974C132.338 93.6058 132.422 93.6386 132.492 93.6921L135.172 95.2393C135.358 95.3466 135.334 95.4075 135.204 95.4961L134.837 95.748L135.058 95.8754L137.166 94.6582L136.945 94.5309L136.509 94.7429C136.442 94.7844 136.363 94.805 136.284 94.8017C136.205 94.7985 136.128 94.7716 136.064 94.7246Z" fill="#687A51"/>
<path d="M135.473 91.0808C134.368 91.7185 134.948 92.4758 136.009 93.0885C136.511 93.4413 137.097 93.6558 137.707 93.7102C138.317 93.7645 138.932 93.657 139.487 93.3982C140.592 92.7607 140.013 92.0036 138.951 91.3905C138.45 91.0378 137.864 90.8234 137.254 90.769C136.643 90.7146 136.029 90.8221 135.473 91.0808ZM139.221 93.2441C138.736 93.5236 137.604 92.9317 136.943 92.5499C136.281 92.1682 135.255 91.5145 135.74 91.235C136.224 90.9554 137.356 91.5477 138.017 91.9294C138.679 92.3113 139.704 92.9645 139.221 93.2441Z" fill="#687A51"/>
<path d="M138.782 89.1705C137.678 89.8083 138.258 90.5653 139.319 91.1782C139.821 91.531 140.406 91.7455 141.017 91.7999C141.627 91.8543 142.241 91.7467 142.797 91.488C143.901 90.8504 143.323 90.0931 142.26 89.4801C141.759 89.1274 141.174 88.913 140.563 88.8587C139.953 88.8043 139.338 88.9119 138.782 89.1705ZM142.53 91.3338C142.046 91.6133 140.913 91.0214 140.252 90.6396C139.59 90.2577 138.565 89.6041 139.049 89.3245C139.534 89.0449 140.666 89.6373 141.327 90.0192C141.988 90.4008 143.014 91.0542 142.53 91.3338Z" fill="#687A51"/>
<path d="M107.117 77.4791L104.837 76.1628C104.539 76.3594 104.252 76.5717 103.977 76.7985L104.097 76.868L104.392 76.7555C104.446 76.7294 104.505 76.7185 104.564 76.7241C104.622 76.7299 104.678 76.7519 104.725 76.7877L106.52 77.8239C106.645 77.8956 106.628 77.9363 106.541 77.9958L106.295 78.1643L106.443 78.2495L107.855 77.4346L107.707 77.3494L107.415 77.4914C107.37 77.5192 107.318 77.5329 107.264 77.5307C107.211 77.5286 107.16 77.5106 107.117 77.4791Z" fill="#FFF9E1"/>
<path d="M106.721 75.0389C105.982 75.4659 106.369 75.973 107.08 76.3834C107.416 76.6197 107.808 76.7633 108.217 76.7997C108.626 76.8361 109.037 76.7641 109.409 76.5908C110.148 76.164 109.761 75.6568 109.05 75.2463C108.714 75.0101 108.322 74.8665 107.913 74.8301C107.504 74.7937 107.093 74.8657 106.721 75.0389ZM109.23 76.4875C108.906 76.6747 108.148 76.2784 107.705 76.0227C107.262 75.7671 106.575 75.3292 106.9 75.1421C107.224 74.955 107.982 75.3515 108.425 75.6071C108.868 75.8628 109.554 76.3004 109.23 76.4875Z" fill="#FFF9E1"/>
<path d="M40.7329 115.8L38.4526 114.484C38.1548 114.68 37.8675 114.893 37.592 115.119L37.7122 115.189L38.0083 115.076C38.0613 115.05 38.1205 115.039 38.1793 115.045C38.238 115.051 38.294 115.073 38.341 115.109L40.1359 116.145C40.2602 116.217 40.2439 116.257 40.1568 116.317L39.9109 116.485L40.0588 116.571L41.4705 115.755L41.3228 115.67L41.0309 115.812C40.9857 115.84 40.9331 115.854 40.88 115.852C40.8269 115.85 40.7757 115.832 40.7329 115.8Z" fill="#FFF9E1"/>
<path d="M40.3373 113.36C39.5976 113.787 39.9858 114.294 40.6967 114.704C41.0323 114.941 41.4244 115.084 41.8333 115.121C42.2422 115.157 42.6534 115.085 43.0256 114.912C43.7649 114.485 43.3773 113.978 42.6663 113.567C42.3306 113.331 41.9386 113.188 41.5296 113.151C41.1207 113.115 40.7095 113.187 40.3373 113.36ZM42.8468 114.809C42.5224 114.996 41.7642 114.6 41.3214 114.344C40.8785 114.088 40.1917 113.65 40.5159 113.463C40.8403 113.276 41.5984 113.673 42.0412 113.928C42.484 114.184 43.171 114.622 42.8468 114.809Z" fill="#FFF9E1"/>
<path d="M42.5529 112.081C41.8132 112.508 42.2014 113.015 42.9123 113.425C43.2479 113.662 43.6399 113.805 44.0488 113.842C44.4578 113.878 44.869 113.806 45.2412 113.633C45.9805 113.206 45.5929 112.699 44.8818 112.288C44.5461 112.052 44.154 111.908 43.7452 111.872C43.3363 111.836 42.925 111.908 42.5529 112.081ZM45.0624 113.529C44.7382 113.717 43.9798 113.32 43.5369 113.065C43.0941 112.809 42.4073 112.371 42.7317 112.184C43.0559 111.997 43.8139 112.393 44.2567 112.649C44.6996 112.905 45.3868 113.342 45.0624 113.529Z" fill="#FFF9E1"/>
<path d="M72.4514 135.554L72.7475 135.724C72.9863 135.862 72.9829 136.087 72.7397 136.227L69.9083 137.862C69.7736 137.931 69.6244 137.968 69.4729 137.969C69.3215 137.969 69.1719 137.934 69.0365 137.867L68.7404 137.695C68.6915 137.679 68.6486 137.648 68.6173 137.607C68.5859 137.566 68.5675 137.517 68.5645 137.465C68.5614 137.413 68.5738 137.362 68.6 137.317C68.6262 137.273 68.6652 137.238 68.7117 137.215L69.0895 136.956L65.6104 134.945L65.1019 135.138C64.9772 135.184 64.8443 135.203 64.7117 135.196C64.579 135.189 64.4493 135.154 64.3304 135.096L64.0899 134.956C63.8783 134.834 63.854 134.64 64.0328 134.497L65.6252 133.228C65.763 133.136 65.9232 133.085 66.0883 133.078L66.2212 133.072C66.3853 133.062 66.5492 133.097 66.6949 133.173L71.168 135.755L71.6196 135.536C71.7508 135.477 71.8935 135.449 72.0374 135.452C72.1812 135.454 72.3226 135.489 72.4514 135.554ZM79.5883 128.77C81.5759 129.918 81.8353 131.084 80.3008 131.97C79.701 132.29 79.0408 132.481 78.3627 132.532C77.6845 132.582 77.0034 132.49 76.3628 132.262C77.1303 133.091 76.9775 133.888 75.8568 134.535C74.9795 134.964 74.0039 135.152 73.03 135.08C72.0562 135.007 71.119 134.678 70.3147 134.124C68.3279 132.976 68.0681 131.811 69.6026 130.925C70.2024 130.604 70.8625 130.413 71.5407 130.363C72.2188 130.312 72.9 130.404 73.5406 130.632C72.7731 129.803 72.9259 129.006 74.0466 128.359C74.9238 127.93 75.8993 127.743 76.8731 127.814C77.8469 127.887 78.784 128.216 79.5883 128.77Z" fill="#FFF9E1"/>
<path d="M70.8279 136.067L66.2548 133.427L66.1214 133.432L64.5291 134.703L64.7701 134.841L65.3638 134.616C65.4701 134.564 65.5888 134.542 65.7067 134.553C65.8246 134.564 65.9369 134.609 66.0311 134.681L69.6305 136.758C69.8799 136.903 69.8472 136.984 69.6726 137.103L69.1797 137.441L69.4758 137.613L72.3072 135.978L72.011 135.807L71.4255 136.092C71.3348 136.147 71.2295 136.175 71.123 136.171C71.0165 136.166 70.9138 136.13 70.8279 136.067Z" fill="#A5AA9F"/>
<path d="M70.0344 131.174C68.5507 132.03 69.3294 133.047 70.7547 133.87C71.4278 134.344 72.2141 134.632 73.0341 134.705C73.8542 134.778 74.679 134.633 75.4253 134.286C76.9081 133.43 76.1308 132.413 74.7047 131.59C74.0315 131.116 73.2453 130.828 72.4254 130.755C71.6054 130.682 70.7807 130.827 70.0344 131.174ZM75.0669 134.079C74.4166 134.454 72.8959 133.659 72.0077 133.147C71.1195 132.634 69.7423 131.756 70.3927 131.381C71.043 131.006 72.5631 131.801 73.4511 132.314C74.3393 132.826 75.7172 133.704 75.0669 134.079Z" fill="#A5AA9F"/>
<path d="M74.4782 128.609C72.9946 129.465 73.7732 130.481 75.1986 131.304C75.8717 131.778 76.658 132.066 77.478 132.14C78.2981 132.213 79.1228 132.068 79.8691 131.72C81.352 130.865 80.5747 129.848 79.1485 129.024C78.4754 128.551 77.6892 128.262 76.8692 128.19C76.0493 128.117 75.2245 128.261 74.4782 128.609ZM79.5107 131.513C78.8604 131.889 77.3398 131.094 76.4516 130.581C75.5635 130.069 74.1863 129.191 74.8366 128.815C75.487 128.44 77.0068 129.235 77.895 129.748C78.7832 130.261 80.161 131.138 79.5107 131.513Z" fill="#A5AA9F"/>
<path d="M113.099 85.4149C110.443 86.948 110.404 89.4119 113.013 90.9179C114.495 91.6594 116.129 92.0413 117.785 92.0328C119.442 92.0242 121.073 91.6254 122.546 90.8686C125.202 89.3355 125.241 86.8715 122.631 85.3655C121.151 84.624 119.516 84.242 117.859 84.2505C116.203 84.2591 114.572 84.658 113.099 85.4149ZM122.033 90.5721C120.72 91.2467 119.266 91.6022 117.79 91.6099C116.313 91.6175 114.856 91.2771 113.536 90.6162C111.211 89.2737 111.245 87.0778 113.612 85.7112C114.925 85.0366 116.379 84.6811 117.855 84.6735C119.332 84.6659 120.789 85.0063 122.109 85.6673C124.434 87.0095 124.4 89.2056 122.033 90.5721Z" fill="#A5AA9F"/>
<path d="M56.8853 117.865C54.2292 119.398 54.1909 121.862 56.7998 123.368C58.2809 124.109 59.9159 124.491 61.5722 124.483C63.2286 124.474 64.8595 124.075 66.3328 123.318C68.9888 121.785 69.0272 119.321 66.4183 117.815C64.9372 117.074 63.3022 116.692 61.6458 116.7C59.9895 116.709 58.3585 117.108 56.8853 117.865ZM65.8193 123.022C64.5062 123.697 63.0525 124.052 61.5762 124.06C60.0999 124.067 58.6426 123.727 57.3226 123.066C54.9973 121.724 55.0312 119.528 57.3987 118.161C58.7118 117.486 60.1656 117.131 61.6418 117.123C63.1182 117.116 64.5754 117.456 65.8955 118.117C68.2208 119.459 68.1868 121.656 65.8193 123.022Z" fill="#A5AA9F"/>
<path d="M117.281 85.9466C117.181 86.1186 117.039 86.2622 116.869 86.364C116.697 86.4659 116.503 86.5224 116.305 86.5286L116.052 86.5624C115.858 86.568 115.668 86.622 115.499 86.7193C115.331 86.8166 115.189 86.9543 115.086 87.1199L115.028 87.2657C114.926 87.4314 114.784 87.5691 114.615 87.6664C114.446 87.7638 114.256 87.8176 114.062 87.8233C113.589 87.8865 113.429 88.1947 113.739 88.3728L116.188 89.7875C116.461 89.9323 116.768 90.0042 117.077 89.9962L120.863 89.9767L121.001 89.8966L121.035 87.7113C121.026 87.6012 120.989 87.4954 120.925 87.4051C120.861 87.3148 120.774 87.2433 120.673 87.1981L118.224 85.7838C117.914 85.6059 117.38 85.698 117.281 85.9466Z" fill="#687A51"/>
<path d="M61.0411 118.412C60.9414 118.584 60.7995 118.727 60.6288 118.829C60.4581 118.931 60.2641 118.988 60.0655 118.994L59.813 119.027C59.6184 119.033 59.4282 119.087 59.2596 119.184C59.091 119.282 58.9492 119.419 58.847 119.585L58.7886 119.731C58.6863 119.896 58.5445 120.034 58.3759 120.131C58.2073 120.229 58.0172 120.283 57.8225 120.288C57.3495 120.351 57.19 120.66 57.4991 120.838L59.9483 122.253C60.2218 122.397 60.5279 122.469 60.8372 122.461L64.6231 122.442L64.7618 122.362L64.7956 120.176C64.7871 120.066 64.749 119.96 64.6854 119.87C64.6217 119.78 64.5348 119.708 64.434 119.663L61.984 118.249C61.675 118.071 61.1408 118.163 61.0411 118.412Z" fill="#687A51"/>
<path d="M91.2801 102.652L89.3853 103.164L83.2687 99.6335C85.0307 99.1696 86.8937 99.2687 88.5968 99.917C88.9167 100.027 89.2571 100.066 89.5936 100.032C89.9309 99.997 90.2561 99.8896 90.5474 99.7167C91.1216 99.3848 92.3976 98.2028 90.973 97.3802C89.7257 96.6601 85.9822 96.5927 81.9023 98.8447L79.5266 97.4734L77.8345 98.4502L80.2101 99.8215C76.8529 101.897 75.7924 104.566 79.5335 106.725C82.2949 108.319 85.835 108.024 89.5642 107.036L91.7011 106.455L98.6787 110.483C97.9543 110.763 96.2716 111.083 92.3923 110.135C92.0188 110.008 91.6219 109.962 91.2288 109.999C90.8356 110.037 90.4546 110.158 90.112 110.354C89.8766 110.465 89.6774 110.639 89.5363 110.857C89.3951 111.075 89.3182 111.328 89.3144 111.588C89.3106 111.847 89.3801 112.103 89.5144 112.325C89.6479 112.547 89.8426 112.728 90.0743 112.845C91.0831 113.428 94.7874 114.1 100.045 111.271L103.132 113.054L104.825 112.077L101.736 110.294C104.518 108.689 106.783 105.564 102.537 103.079C99.2409 101.211 95.6717 101.489 91.2801 102.652ZM87.0393 103.764C86.1882 104.117 85.2736 104.294 84.3515 104.284C83.4302 104.274 82.5201 104.077 81.6767 103.705C80.1921 102.848 80.1232 101.551 81.5765 100.61L87.0393 103.764ZM100.371 109.506L93.9566 105.803C96.0784 105.143 98.3731 105.329 100.36 106.324C102.112 107.335 101.973 108.581 100.371 109.506Z" fill="#687A51"/>
<path d="M127.616 100.183L120.19 104.468L119.748 104.212L127.174 99.9267L127.616 100.183Z" fill="#A5AA9F"/>
<path d="M89.9883 121.905L82.5624 126.19L82.1201 125.934L89.5461 121.648L89.9883 121.905Z" fill="#A5AA9F"/>
<path d="M79.6996 87.3302L61.1199 98.0553L104.284 122.973L122.865 112.248L79.6996 87.3302Z" fill="#FEF0FF"/>
<path d="M122.865 125.558L104.281 136.276V122.965L122.865 112.248V125.558Z" fill="#EBDAED"/>
<path d="M120.819 113.429L77.6536 88.5107L79.9808 87.167L123.146 112.085V125.395L120.819 126.737V113.429Z" fill="#B142CC"/>
<path d="M103.909 123.19L60.7444 98.2717L63.0716 96.928L106.237 121.846V135.156L103.909 136.498V123.19Z" fill="#B142CC"/>
<path d="M120.819 113.428L123.146 112.085V125.395L120.819 126.737V113.428Z" fill="#8D2CA7"/>
<path d="M103.909 123.189L106.237 121.846V135.156L103.909 136.498V123.189Z" fill="#8D2CA7"/>
</g>
<g style="mix-blend-mode:screen" opacity="0.6">
<path d="M52.6098 123.424C72.6846 135.012 105.255 135.012 125.199 123.423C145.151 111.83 145.037 92.9715 124.962 81.3832C104.888 69.7948 72.3253 69.7905 52.3731 81.3836C32.429 92.9721 32.5351 111.835 52.6098 123.424Z" fill="#FFBBFA"/>
</g>
<path style="mix-blend-mode:multiply" d="M52.373 84.9858C72.3251 73.3927 104.888 73.397 124.962 84.9855C134.244 90.3437 139.25 97.2564 139.986 104.286C140.834 96.0585 135.829 87.656 124.962 81.3832C104.888 69.7948 72.3251 69.7905 52.373 81.3836C41.6497 87.6142 36.7322 95.9477 37.5887 104.123C38.3068 97.1495 43.2238 90.3021 52.373 84.9858Z" fill="url(#paint1_linear_417_12131)"/>
<path d="M141.016 100.453L140.993 108.486C140.971 116.186 135.921 123.876 125.829 129.739C105.526 141.536 72.3751 141.537 51.9385 129.74C41.6543 123.803 36.5182 115.992 36.5401 108.193L36.5629 100.16C36.5409 107.959 41.6771 115.77 51.9612 121.706C72.3978 133.504 105.548 133.504 125.852 121.706C135.944 115.842 140.995 108.153 141.016 100.453Z" fill="url(#paint2_linear_417_12131)"/>
<path d="M125.619 78.9077C146.056 90.7048 146.164 109.904 125.852 121.706C105.548 133.504 72.3977 133.504 51.9611 121.706C31.5246 109.909 31.4164 90.7099 51.7203 78.9125C72.0317 67.1105 105.182 67.1104 125.619 78.9077ZM52.6098 121.329C72.6845 132.917 105.255 132.917 125.199 121.329C145.151 109.736 145.037 90.8774 124.962 79.2889C104.887 67.7006 72.3252 67.6962 52.3731 79.2893C32.4289 90.8779 32.535 109.741 52.6098 121.329Z" fill="url(#paint3_linear_417_12131)"/>
<path d="M139.523 132.063C139.696 132.094 139.864 132.153 140.017 132.239L125.992 124.177C125.838 124.091 125.672 124.032 125.498 124.001C123.961 123.708 121.467 125.138 119.931 127.193C119.267 127.983 118.865 128.958 118.778 129.985C118.758 130.24 118.809 130.496 118.926 130.723C119.042 130.952 119.218 131.144 119.437 131.277L133.461 139.339C133.615 139.425 133.782 139.485 133.955 139.517C135.492 139.809 137.986 138.379 139.523 136.324C140.186 135.534 140.589 134.559 140.676 133.532C140.707 133.186 140.606 132.841 140.392 132.568C140.178 132.295 139.867 132.114 139.523 132.063Z" fill="url(#paint4_linear_417_12131)"/>
<path d="M189.226 157.313L142.302 130.398C142.056 130.261 141.79 130.165 141.514 130.115C139.049 129.657 135.067 131.94 132.601 135.226C131.542 136.488 130.899 138.046 130.759 139.688C130.728 140.096 130.81 140.505 130.996 140.87C131.182 141.234 131.465 141.54 131.814 141.755L178.737 168.669C178.389 168.455 178.106 168.149 177.92 167.784C177.734 167.42 177.652 167.012 177.683 166.604C177.823 164.962 178.466 163.404 179.526 162.142C181.991 158.855 185.972 156.572 188.437 157.03C188.714 157.081 188.981 157.177 189.226 157.313Z" fill="#8821D8"/>
<path d="M190.279 159.38C190.33 158.827 190.167 158.276 189.825 157.839C189.482 157.403 188.986 157.113 188.437 157.03C187.201 156.897 185.953 157.14 184.857 157.726C182.756 158.756 180.929 160.269 179.525 162.142C178.466 163.404 177.823 164.962 177.682 166.604C177.632 167.157 177.795 167.707 178.137 168.144C178.48 168.581 178.976 168.87 179.525 168.953C181.99 169.411 185.971 167.128 188.437 163.841C189.496 162.579 190.14 161.021 190.279 159.38Z" fill="#7717C1"/>
<path style="mix-blend-mode:screen" d="M179.525 162.142C181.581 160.132 185.707 156.891 188.437 157.03C185.999 155.978 181.061 158.868 179.525 162.142Z" fill="url(#paint5_radial_417_12131)"/>
<path style="mix-blend-mode:screen" d="M209.415 162.578C211.671 148.616 202.181 135.47 188.217 133.214C174.254 130.958 161.105 140.447 158.849 154.408C156.593 168.37 166.083 181.516 180.046 183.772C194.01 186.028 207.158 176.539 209.415 162.578Z" fill="url(#paint6_radial_417_12131)"/>
<path style="mix-blend-mode:screen" d="M161.602 134.133C165.992 115.383 154.349 96.6248 135.597 92.235C116.844 87.8452 98.0827 99.4865 93.6918 118.236C89.3016 136.986 100.944 155.745 119.697 160.135C138.45 164.524 157.211 152.883 161.602 134.133Z" fill="url(#paint7_radial_417_12131)"/>
<path style="mix-blend-mode:screen" d="M98.804 95.5134C127.142 95.5134 150.115 85.5487 150.115 73.2567C150.115 60.9647 127.142 51 98.804 51C70.4655 51 47.4927 60.9647 47.4927 73.2567C47.4927 85.5487 70.4655 95.5134 98.804 95.5134Z" fill="url(#paint8_radial_417_12131)"/>
<path style="mix-blend-mode:screen" d="M103.623 81.6976C103.623 85.2303 96.4559 88.0938 87.6152 88.0938C78.7745 88.0938 71.6077 85.2303 71.6077 81.6976C71.6077 78.1651 78.7745 75.3013 87.6152 75.3013C96.4559 75.3013 103.623 78.1651 103.623 81.6976Z" fill="url(#paint9_radial_417_12131)"/>
</g>
<defs>
<linearGradient id="paint0_linear_417_12131" x1="37.4614" y1="89.5429" x2="140.091" y2="89.5429" gradientUnits="userSpaceOnUse">
<stop stop-color="#CB89F0"/>
<stop offset="1" stop-color="#8B3DCE"/>
</linearGradient>
<linearGradient id="paint1_linear_417_12131" x1="37.4934" y1="88.4884" x2="140.078" y2="88.4884" gradientUnits="userSpaceOnUse">
<stop stop-color="#CB89F0"/>
<stop offset="1" stop-color="#8B3DCE"/>
</linearGradient>
<linearGradient id="paint2_linear_417_12131" x1="36.54" y1="119.374" x2="141.016" y2="119.374" gradientUnits="userSpaceOnUse">
<stop stop-color="#8B3DCE"/>
<stop offset="1" stop-color="#CB89F0"/>
</linearGradient>
<linearGradient id="paint3_linear_417_12131" x1="36.5627" y1="100.307" x2="141.017" y2="100.307" gradientUnits="userSpaceOnUse">
<stop stop-color="#F5ABFF"/>
<stop offset="0.45567" stop-color="#FFC5FF"/>
<stop offset="1" stop-color="#FFDEFF"/>
</linearGradient>
<linearGradient id="paint4_linear_417_12131" x1="132.091" y1="127.664" x2="126.291" y2="137.711" gradientUnits="userSpaceOnUse">
<stop stop-color="#FFDEFA"/>
<stop offset="0.51724" stop-color="#FFBBFA"/>
<stop offset="0.77965" stop-color="#F0ADF6"/>
<stop offset="1" stop-color="#E09DF1"/>
</linearGradient>
<radialGradient id="paint5_radial_417_12131" cx="0" cy="0" r="1" gradientUnits="userSpaceOnUse" gradientTransform="translate(183.982 158.35) scale(6.87738 6.8763)">
<stop stop-color="#FFEC3D"/>
<stop offset="0.21675" stop-color="#E53DFF"/>
<stop offset="0.26152" stop-color="#C735DE"/>
<stop offset="0.33978" stop-color="#9929AB"/>
<stop offset="0.42161" stop-color="#701E7D"/>
<stop offset="0.50541" stop-color="#4E1556"/>
<stop offset="0.59165" stop-color="#310D37"/>
<stop offset="0.68113" stop-color="#1C071F"/>
<stop offset="0.77518" stop-color="#0C030D"/>
<stop offset="0.87683" stop-color="#030103"/>
<stop offset="1"/>
</radialGradient>
<radialGradient id="paint6_radial_417_12131" cx="0" cy="0" r="1" gradientUnits="userSpaceOnUse" gradientTransform="translate(184.132 158.493) scale(25.6108 25.6069)">
<stop stop-color="#FF72D5"/>
<stop offset="0.04024" stop-color="#DB62B7"/>
<stop offset="0.09937" stop-color="#AE4E91"/>
<stop offset="0.16414" stop-color="#843B6E"/>
<stop offset="0.71875" stop-color="#602B51" stop-opacity="0"/>
</radialGradient>
<radialGradient id="paint7_radial_417_12131" cx="0" cy="0" r="1" gradientUnits="userSpaceOnUse" gradientTransform="translate(127.647 126.185) scale(34.8729 34.8677)">
<stop stop-color="#FF72D5"/>
<stop offset="0.04024" stop-color="#DB62B7"/>
<stop offset="0.09937" stop-color="#AE4E91"/>
<stop offset="0.16414" stop-color="#843B6E"/>
<stop offset="0.23318" stop-color="#602B51"/>
<stop offset="1" stop-color="#421E37" stop-opacity="0"/>
</radialGradient>
<radialGradient id="paint8_radial_417_12131" cx="0" cy="0" r="1" gradientUnits="userSpaceOnUse" gradientTransform="translate(98.804 73.2567) scale(51.3114 22.2567)">
<stop stop-color="#FFEC3D"/>
<stop offset="0.21675" stop-color="#E53DFF"/>
<stop offset="0.24306" stop-color="#CC36E3"/>
<stop offset="0.29353" stop-color="#A22BB4"/>
<stop offset="0.34841" stop-color="#7B2189"/>
<stop offset="1" stop-color="#5A1864" stop-opacity="0"/>
</radialGradient>
<radialGradient id="paint9_radial_417_12131" cx="0" cy="0" r="1" gradientUnits="userSpaceOnUse" gradientTransform="translate(101.926 78.713) scale(40.5904 40.5842)">
<stop stop-color="#F5CDB8"/>
<stop offset="1" stop-color="#E53DFF"/>
</radialGradient>
<clipPath id="clip0_417_12131">
<rect width="206" height="169" fill="white" transform="translate(7.5 51)"/>
</clipPath>
</defs>
</svg>
