<svg width="220" height="220" viewBox="0 0 220 220" fill="none" xmlns="http://www.w3.org/2000/svg">
<g clip-path="url(#clip0_417_12610)">
<g style="mix-blend-mode:multiply" opacity="0.7">
<path d="M187.353 156.723L95.5572 103.689C94.1737 102.948 92.6231 102.573 91.0533 102.601H85.1742C83.6145 102.577 82.0742 102.949 80.6971 103.68L16.3912 140.652C13.8832 142.093 13.8677 144.436 16.3564 145.883L108.151 198.917C109.45 199.616 110.9 199.989 112.375 200.001C112.473 200.003 118.383 200.005 118.48 200.005C120.058 200.036 121.618 199.665 123.012 198.926L187.317 161.955C189.826 160.513 189.841 158.17 187.353 156.723Z" fill="#50197C"/>
</g>
<path d="M20.3058 141.936L116.209 197.437L184.452 158.111C186.206 157.1 189.383 155.821 187.631 154.809L92.3437 99.8556C90.2525 99.4936 88.1106 99.5396 86.0368 99.9909L19.5738 138.327C19.3414 138.596 19.1736 138.915 19.0835 139.259C18.9935 139.603 18.9833 139.962 19.054 140.31C19.1246 140.659 19.2741 140.986 19.4911 141.268C19.7081 141.55 19.9868 141.778 20.3058 141.936Z" fill="#2F0C3A"/>
<path d="M189.528 157.091C189.476 157.658 189.274 158.202 188.941 158.665C188.609 159.127 188.159 159.493 187.637 159.723L123.331 196.695C121.929 197.406 120.379 197.775 118.806 197.774C117.233 197.772 115.683 197.399 114.283 196.686L20.3112 142.398C19.7991 142.167 19.3576 141.804 19.0314 141.348C18.7053 140.891 18.5064 140.356 18.4548 139.798L18.46 141.997C18.5115 142.556 18.7104 143.091 19.0365 143.548C19.3625 144.004 19.8041 144.366 20.3162 144.597L114.288 198.886C115.689 199.599 117.238 199.971 118.811 199.973C120.384 199.975 121.935 199.605 123.336 198.895L187.643 161.923C188.164 161.693 188.614 161.327 188.947 160.864C189.279 160.402 189.481 159.858 189.533 159.291L189.528 157.091Z" fill="url(#paint0_linear_417_12610)"/>
<path d="M33.8861 151.329L26.7359 147.199C26.396 147.004 26.1239 147.163 26.1235 147.556L26.1233 147.75C26.1342 147.963 26.1953 148.169 26.3015 148.353C26.4077 148.537 26.556 148.693 26.7343 148.809L33.8844 152.939C34.2209 153.132 34.4965 152.972 34.4969 152.582L34.497 152.388C34.4861 152.176 34.4251 151.969 34.3189 151.785C34.2127 151.601 34.0644 151.445 33.8861 151.329Z" fill="#8B3DCE"/>
<path d="M34.8821 151.788C34.8341 151.648 34.7652 151.516 34.6778 151.397C34.5861 151.267 34.4684 151.157 34.3321 151.074L27.182 146.944C27.1202 146.9 27.0479 146.872 26.972 146.865C26.8963 146.857 26.8198 146.87 26.7505 146.901L26.3049 147.156C26.3742 147.124 26.4506 147.112 26.5264 147.119C26.6022 147.127 26.6746 147.154 26.7362 147.199L33.8862 151.329C34.0226 151.411 34.1404 151.521 34.2322 151.651C34.3196 151.771 34.3884 151.903 34.4364 152.043C34.4753 152.154 34.4959 152.271 34.4974 152.388L34.4972 152.582C34.5051 152.659 34.4923 152.736 34.4602 152.806C34.4281 152.876 34.3778 152.937 34.3146 152.98L34.7606 152.725C34.8237 152.681 34.8739 152.622 34.906 152.551C34.9381 152.482 34.9508 152.405 34.9429 152.328L34.9431 152.133C34.9416 152.015 34.9209 151.899 34.8821 151.788Z" fill="url(#paint1_linear_417_12610)"/>
<path d="M42.0657 155.914C42.0177 155.774 41.9489 155.641 41.8615 155.522C41.7697 155.392 41.6521 155.282 41.5159 155.2L38.1263 153.242C38.0647 153.198 37.9923 153.17 37.9165 153.162C37.8407 153.155 37.7642 153.167 37.6949 153.198L37.2493 153.453C37.3186 153.422 37.395 153.409 37.4708 153.417C37.5466 153.424 37.619 153.452 37.6805 153.496L41.0699 155.454C41.2062 155.537 41.3241 155.646 41.4159 155.776C41.5032 155.897 41.572 156.028 41.6201 156.168C41.659 156.279 41.6796 156.396 41.6811 156.514L41.6809 156.708C41.6888 156.784 41.676 156.861 41.6439 156.932C41.6119 157.001 41.5616 157.062 41.4984 157.106L41.9443 156.852C42.0075 156.807 42.0576 156.747 42.0897 156.677C42.1217 156.607 42.1345 156.53 42.1267 156.453L42.1268 156.258C42.1253 156.141 42.1046 156.024 42.0657 155.914Z" fill="url(#paint2_linear_417_12610)"/>
<path d="M41.07 155.454L37.6807 153.496C37.3409 153.301 37.0686 153.46 37.0683 153.854L37.0681 154.048C37.079 154.26 37.1401 154.467 37.2462 154.651C37.3525 154.835 37.5008 154.991 37.6791 155.106L41.0685 157.064C41.4048 157.257 41.6806 157.097 41.681 156.708L41.6812 156.513C41.6702 156.301 41.6092 156.095 41.5029 155.911C41.3967 155.727 41.2483 155.57 41.07 155.454Z" fill="#8B3DCE"/>
<path d="M187.672 154.492L93.7001 100.204C92.2994 99.4904 90.7495 99.1177 89.177 99.1161C87.6045 99.1146 86.054 99.4842 84.6519 100.195L20.346 137.166C17.838 138.608 17.8226 140.951 20.3112 142.398L114.283 196.686C115.683 197.399 117.233 197.772 118.806 197.774C120.379 197.775 121.929 197.406 123.331 196.695L187.637 159.723C190.145 158.282 190.16 155.939 187.672 154.492ZM184.93 154.831L115.006 195.033C114.747 195.182 114.454 195.259 114.155 195.259C113.857 195.259 113.563 195.18 113.305 195.031L20.2828 141.31C20.0185 141.157 19.7992 140.938 19.6467 140.674C19.4943 140.41 19.4143 140.111 19.4146 139.806C19.4149 139.501 19.4956 139.202 19.6485 138.937C19.8014 138.674 20.0213 138.455 20.2859 138.303L41.7381 125.969L44.966 126.271L68.2677 112.844L67.7518 111.014L84.9153 101.146C86.2333 100.388 87.7281 99.9895 89.2492 99.9909C90.7704 99.9924 92.2643 100.393 93.5809 101.154L184.932 153.909C185.012 153.956 185.079 154.023 185.126 154.104C185.173 154.185 185.197 154.277 185.197 154.37C185.197 154.464 185.173 154.556 185.126 154.636C185.079 154.717 185.011 154.784 184.93 154.831Z" fill="#412B42"/>
<path d="M156.869 174.96L155.659 174.261C155.296 174.091 154.897 174.01 154.496 174.024C154.096 174.039 153.705 174.149 153.355 174.344L149.03 176.831C148.821 176.943 148.645 177.107 148.519 177.308C148.463 177.403 148.428 177.509 148.416 177.619C148.404 177.728 148.416 177.839 148.45 177.944C148.484 178.049 148.539 178.146 148.613 178.227C148.688 178.309 148.778 178.375 148.879 178.42L150.089 179.118C150.452 179.289 150.85 179.37 151.25 179.355C151.651 179.34 152.043 179.23 152.392 179.035L156.718 176.548C156.927 176.436 157.102 176.272 157.229 176.071C157.284 175.977 157.32 175.87 157.331 175.761C157.343 175.651 157.332 175.54 157.297 175.435C157.264 175.33 157.208 175.234 157.134 175.152C157.06 175.069 156.97 175.004 156.869 174.96Z" fill="#342135"/>
<path d="M156.869 175.368L155.659 174.669C155.296 174.5 154.897 174.419 154.496 174.433C154.096 174.447 153.705 174.557 153.355 174.753L149.03 177.24C148.821 177.352 148.645 177.516 148.519 177.716C148.485 177.782 148.461 177.853 148.447 177.926C148.525 178.137 148.679 178.313 148.879 178.42L150.089 179.118C150.452 179.289 150.85 179.37 151.251 179.355C151.651 179.34 152.043 179.23 152.392 179.035L156.718 176.548C156.927 176.436 157.102 176.272 157.229 176.071C157.262 176.005 157.287 175.935 157.301 175.861C157.222 175.649 157.069 175.474 156.869 175.368Z" fill="#412B42"/>
<path d="M56.324 118.76C56.1074 118.871 55.8678 118.928 55.6248 118.928C55.3817 118.928 55.1421 118.871 54.9255 118.76C54.8412 118.731 54.7681 118.676 54.7166 118.603C54.665 118.531 54.6375 118.444 54.6379 118.354C54.6384 118.265 54.6668 118.179 54.7191 118.107C54.7714 118.035 54.845 117.981 54.9296 117.952C55.1463 117.841 55.3859 117.784 55.629 117.784C55.8721 117.784 56.1118 117.841 56.3284 117.952C56.4128 117.981 56.4857 118.036 56.5373 118.109C56.5888 118.181 56.6162 118.269 56.6157 118.358C56.6152 118.447 56.5868 118.534 56.5345 118.606C56.4822 118.678 56.4086 118.732 56.324 118.76Z" fill="#191414"/>
<path opacity="0.1" d="M55.1279 118.664C55.2901 118.741 55.4684 118.778 55.648 118.774C55.8277 118.769 56.0038 118.722 56.1618 118.637C56.2236 118.614 56.2765 118.571 56.3133 118.516C56.3501 118.462 56.3688 118.397 56.3667 118.332C56.3647 118.265 56.342 118.201 56.302 118.149C56.2619 118.097 56.2065 118.058 56.1434 118.039C55.9811 117.962 55.8028 117.924 55.623 117.928C55.4433 117.933 55.2672 117.98 55.1091 118.066C55.0473 118.089 54.9944 118.131 54.9577 118.186C54.921 118.241 54.9024 118.305 54.9044 118.371C54.9065 118.437 54.9291 118.501 54.9692 118.553C55.0093 118.606 55.0648 118.644 55.1279 118.664Z" fill="#D0D6D6"/>
<path opacity="0.1" d="M55.3449 118.501C55.4331 118.543 55.5299 118.564 55.6275 118.561C55.7252 118.559 55.8209 118.534 55.9068 118.487C55.9403 118.474 55.9691 118.451 55.989 118.422C56.009 118.392 56.0192 118.357 56.0181 118.321C56.017 118.285 56.0047 118.251 55.983 118.222C55.9612 118.193 55.9311 118.173 55.8968 118.162C55.8086 118.12 55.7117 118.099 55.614 118.102C55.5164 118.104 55.4206 118.13 55.3347 118.176C55.3011 118.189 55.2723 118.212 55.2524 118.242C55.2324 118.271 55.2223 118.307 55.2235 118.342C55.2245 118.378 55.2368 118.413 55.2586 118.441C55.2804 118.47 55.3105 118.491 55.3449 118.501Z" fill="#D0D6D6"/>
<g style="mix-blend-mode:screen" opacity="0.2">
<path d="M55.5186 118.395C55.5512 118.41 55.5871 118.417 55.6232 118.417C55.6593 118.416 55.6947 118.406 55.7265 118.389C55.7389 118.385 55.7496 118.376 55.757 118.365C55.7643 118.354 55.7681 118.341 55.7677 118.327C55.7673 118.314 55.7627 118.302 55.7547 118.291C55.7466 118.281 55.7354 118.273 55.7227 118.269C55.6901 118.254 55.6543 118.246 55.6182 118.246C55.582 118.248 55.5466 118.257 55.5148 118.274C55.5024 118.279 55.4918 118.287 55.4844 118.299C55.477 118.309 55.4733 118.323 55.4737 118.336C55.4741 118.349 55.4787 118.362 55.4867 118.372C55.4947 118.383 55.5059 118.39 55.5186 118.395Z" fill="#D0D6D6"/>
</g>
<path d="M65.401 112.414L60.9201 114.997C60.6433 115.156 60.6133 115.398 60.8529 115.536C61.001 115.603 61.1627 115.634 61.3251 115.627C61.4875 115.621 61.646 115.576 61.788 115.497L66.2689 112.914C66.5456 112.755 66.5756 112.513 66.3359 112.375C66.1879 112.308 66.0262 112.277 65.8638 112.284C65.7014 112.29 65.5428 112.335 65.401 112.414Z" fill="#191414"/>
<path d="M49.2165 121.74L44.7357 124.323C44.4591 124.483 44.4289 124.724 44.6687 124.862C44.8167 124.929 44.9785 124.96 45.1408 124.954C45.3032 124.947 45.4617 124.902 45.6036 124.823L50.0844 122.24C50.3612 122.08 50.3912 121.84 50.1515 121.702C50.0035 121.635 49.8418 121.603 49.6794 121.61C49.517 121.617 49.3585 121.662 49.2165 121.74Z" fill="#191414"/>
<path d="M156.767 179.253L153.516 181.121C153.138 181.339 152.832 181.209 152.832 180.832C152.853 180.611 152.927 180.398 153.045 180.21C153.165 180.022 153.327 179.865 153.518 179.752L156.769 177.883C157.147 177.665 157.453 177.795 157.453 178.173C157.432 178.393 157.358 178.606 157.239 178.794C157.12 178.982 156.958 179.139 156.767 179.253Z" fill="#342135"/>
<mask id="mask0_417_12610" style="mask-type:luminance" maskUnits="userSpaceOnUse" x="152" y="177" width="6" height="5">
<path d="M156.767 179.253L153.516 181.121C153.138 181.339 152.832 181.209 152.832 180.832C152.853 180.611 152.927 180.398 153.045 180.21C153.165 180.022 153.327 179.865 153.518 179.752L156.769 177.883C157.147 177.665 157.453 177.795 157.453 178.173C157.432 178.393 157.358 178.606 157.239 178.794C157.12 178.982 156.958 179.139 156.767 179.253Z" fill="white"/>
</mask>
<g mask="url(#mask0_417_12610)">
<path d="M152.28 179.766L151.827 180.027L153.432 180.952L153.885 180.692L152.28 179.766ZM153.274 179.193L152.823 179.454L154.428 180.378L154.88 180.118L153.274 179.193ZM154.269 178.619L153.817 178.88L155.423 179.806L155.875 179.545L154.269 178.619ZM155.265 178.047L154.812 178.307L156.418 179.232L156.87 178.972L155.265 178.047Z" fill="#7C633C"/>
</g>
<g opacity="0.4">
<g style="mix-blend-mode:screen">
<path d="M182.266 143.739L92.7978 92.1815L23.1621 132.309L112.63 183.866C113.129 184.119 113.681 184.251 114.24 184.251C114.799 184.251 115.35 184.119 115.849 183.866L182.266 145.593C182.46 145.527 182.629 145.403 182.749 145.236C182.868 145.07 182.932 144.87 182.932 144.666C182.932 144.461 182.868 144.261 182.749 144.095C182.629 143.928 182.46 143.804 182.266 143.739Z" fill="#7B38D4"/>
</g>
<path d="M94.7914 93.3303L25.1556 133.458L21.0612 131.099C20.867 131.034 20.6982 130.909 20.5786 130.743C20.4591 130.576 20.3948 130.377 20.3948 130.171C20.3948 129.967 20.4591 129.767 20.5786 129.601C20.6982 129.435 20.867 129.31 21.0612 129.244L87.4786 90.9709C87.9773 90.7184 88.5286 90.5868 89.0879 90.5868C89.647 90.5868 90.1984 90.7184 90.697 90.9709L94.7914 93.3303Z" fill="#8821D8"/>
</g>
<g opacity="0.7">
<g style="mix-blend-mode:screen">
<path d="M182.266 135.949L92.7978 84.3919L23.1621 124.52L112.63 176.077C113.129 176.329 113.681 176.461 114.24 176.461C114.799 176.461 115.35 176.329 115.849 176.077L182.266 137.803C182.46 137.738 182.629 137.613 182.749 137.447C182.868 137.281 182.932 137.081 182.932 136.876C182.932 136.671 182.868 136.471 182.749 136.305C182.629 136.139 182.46 136.014 182.266 135.949Z" fill="#7B38D4"/>
</g>
<path d="M94.7914 85.5405L25.1556 125.669L21.0612 123.309C20.867 123.244 20.6982 123.119 20.5786 122.953C20.4591 122.787 20.3948 122.587 20.3948 122.382C20.3948 122.177 20.4591 121.977 20.5786 121.811C20.6982 121.645 20.867 121.52 21.0612 121.455L87.4786 83.1812C87.9773 82.9287 88.5286 82.7971 89.0879 82.7971C89.647 82.7971 90.1984 82.9287 90.697 83.1812L94.7914 85.5405Z" fill="#8821D8"/>
</g>
<g style="mix-blend-mode:screen">
<path d="M182.266 128.159L92.7978 76.602L23.1621 116.73L112.63 168.287C113.129 168.539 113.681 168.671 114.24 168.671C114.799 168.671 115.35 168.539 115.849 168.287L182.266 130.014C182.46 129.947 182.629 129.823 182.749 129.657C182.868 129.49 182.932 129.29 182.932 129.086C182.932 128.881 182.868 128.682 182.749 128.515C182.629 128.349 182.46 128.224 182.266 128.159Z" fill="#7B38D4"/>
</g>
<path d="M94.7914 77.7509L25.1556 117.879L21.0612 115.519C20.867 115.454 20.6982 115.33 20.5786 115.163C20.4591 114.997 20.3948 114.797 20.3948 114.592C20.3948 114.388 20.4591 114.188 20.5786 114.021C20.6982 113.855 20.867 113.731 21.0612 113.665L87.4786 75.3914C87.9773 75.1389 88.5286 75.0074 89.0879 75.0074C89.647 75.0074 90.1983 75.1389 90.697 75.3914L94.7914 77.7509Z" fill="#8821D8"/>
<path d="M83.2488 83.2086L79.6335 85.2906L76.0183 83.2086L79.6335 81.1247L83.2488 83.2086Z" fill="#6811BC"/>
<path d="M87.7279 80.6261L84.1145 82.71L80.4993 80.6261L84.1145 78.5424L87.7279 80.6261Z" fill="#6811BC"/>
<path d="M81.644 80.6258L84.1138 82.0492L86.5836 80.6258L84.1138 79.2027L81.644 80.6258ZM85.7357 80.6258L84.1138 81.5604L82.492 80.6258L84.1138 79.6913L85.7357 80.6258Z" fill="#F6C2FF"/>
<path d="M92.2085 78.0435L88.5933 80.1273L84.978 78.0435L88.5933 75.9598L92.2085 78.0435Z" fill="#6811BC"/>
<path d="M86.4644 78.2181H88.3951V79.3295H89.0161V78.2181H90.9468V77.8601H89.0161V76.7469H88.3951V77.8601H86.4644V78.2181Z" fill="#F6C2FF"/>
<path d="M82.0515 83.2425L79.7372 84.5765L79.2964 84.3236L81.6108 82.9896L82.0515 83.2425Z" fill="#F6C2FF"/>
<path opacity="0.3" d="M179.774 128.96L113.995 166.865L29.3774 118.104L95.1565 80.1987L179.774 128.96Z" fill="#FFBBFA"/>
<g style="mix-blend-mode:overlay" opacity="0.5">
<path d="M179.774 128.96L113.995 166.865L29.3774 118.104L95.1565 80.1987L179.774 128.96Z" fill="#FFBBFA"/>
</g>
<path d="M101.144 83.6485L35.3642 121.554L29.3774 118.104L95.1565 80.1987L101.144 83.6485Z" fill="#DE78FF"/>
<path d="M107.115 162.9L113.995 166.865L179.774 128.96L172.895 124.995L107.115 162.9Z" fill="#DE78FF"/>
<path opacity="0.9" d="M101.2 116.392C113.941 116.392 124.269 110.44 124.269 103.099C124.269 95.7568 113.941 89.8051 101.2 89.8051C88.4593 89.8051 78.1311 95.7568 78.1311 103.099C78.1311 110.44 88.4593 116.392 101.2 116.392Z" fill="#F6C2FF"/>
<path d="M117.512 112.498C108.503 117.69 93.8965 117.69 84.8875 112.498V114.347C93.8965 119.538 108.503 119.538 117.512 114.347C122.07 111.721 124.322 108.268 124.268 104.825V102.976C124.322 106.419 122.07 109.872 117.512 112.498Z" fill="#DE78FF"/>
<path d="M101.552 96.9492L101.412 102.859L101.017 102.985L84.8853 93.6935L84.896 87.4421L101.552 96.9492Z" fill="#DE78FF"/>
<path d="M101.417 96.9633V103.149L117.727 93.745L117.74 87.4954L101.417 96.9633Z" fill="#DE78FF"/>
<g style="mix-blend-mode:screen" opacity="0.5">
<path d="M117.74 87.4956L101.418 96.9628L84.8967 87.4425C93.9897 82.2653 108.63 82.2827 117.74 87.4956Z" fill="#FFBBFA"/>
</g>
<path d="M78.0655 99.2236L78.0583 102.444L101.42 102.912L101.418 99.2236H78.0655Z" fill="#DE78FF"/>
<g style="mix-blend-mode:overlay" opacity="0.5">
<path d="M84.8833 89.6715C80.3501 92.3195 78.0647 95.7658 78.0623 99.2227L101.418 99.2232L84.8833 89.6715Z" fill="#FFBBFA"/>
</g>
<path d="M84.8615 110.58C81.8816 109.084 79.5669 106.533 78.369 103.426C78.1624 102.708 78.058 101.964 78.0591 101.216L78.0512 101.776C77.9922 103.47 78.0982 105.165 78.3677 106.839L78.3986 106.961C78.946 108.584 79.8136 110.079 80.9503 111.361C82.0869 112.644 83.4694 113.685 85.0162 114.424C85.1641 114.509 85.3165 114.59 85.4682 114.672L85.4712 110.92C85.2646 110.808 85.0614 110.695 84.8615 110.58Z" fill="#DE78FF"/>
<path d="M101.421 101.243L101.416 103.151L85.4668 112.827L85.4704 110.92L101.421 101.243Z" fill="#DE78FF"/>
<g style="mix-blend-mode:overlay" opacity="0.5">
<path d="M101.421 101.243L85.4718 110.92C85.2651 110.808 85.0619 110.695 84.862 110.581C81.8822 109.084 79.5676 106.533 78.3696 103.426C78.1634 102.707 78.0586 101.962 78.0583 101.214L101.421 101.243Z" fill="#FFBBFA"/>
</g>
<path d="M57.0805 116.01L46.6309 122.031L45.5549 121.411L56.0045 115.39L57.0805 116.01Z" fill="#C858F0"/>
<path d="M53.6992 120.261L48.6279 123.183L47.5537 122.564L52.625 119.641L53.6992 120.261Z" fill="#C858F0"/>
<path d="M67.0695 114.859L50.626 124.335L49.55 123.714L65.9935 114.239L67.0695 114.859Z" fill="#FFBBFA"/>
<path d="M76.7787 111.566L52.6248 125.485L51.5488 124.865L75.7045 110.946L76.7787 111.566Z" fill="#DE78FF"/>
<path d="M76.9338 113.78L54.6214 126.637L53.5454 126.018L75.8578 113.16L76.9338 113.78Z" fill="#DE78FF"/>
<path d="M75.753 116.763L56.6204 127.787L55.5444 127.168L74.677 116.143L75.753 116.763Z" fill="#C858F0"/>
<path d="M73.9842 120.082L58.6168 128.94L57.5408 128.32L72.91 119.463L73.9842 120.082Z" fill="#C858F0"/>
<path d="M72.7547 123.095L60.6153 130.09L59.5393 129.471L71.6805 122.475L72.7547 123.095Z" fill="#C858F0"/>
<path d="M81.7465 120.217L62.6121 131.242L61.5378 130.621L80.6705 119.596L81.7465 120.217Z" fill="#DE78FF"/>
<path d="M84.5942 120.877L64.6104 132.394L63.5344 131.773L83.5181 120.258L84.5942 120.877Z" fill="#DE78FF"/>
<path d="M83.1294 124.024L66.6092 133.544L65.5332 132.924L82.0534 123.404L83.1294 124.024Z" fill="#FFBBFA"/>
<path d="M82.2069 126.858L68.606 134.696L67.53 134.077L81.1309 126.238L82.2069 126.858Z" fill="#C858F0"/>
<path d="M89.8141 124.778L70.6048 135.847L69.5288 135.227L88.7381 124.158L89.8141 124.778Z" fill="#FFBBFA"/>
<path d="M92.9916 125.248L72.601 136.999L71.5269 136.377L91.9157 124.628L92.9916 125.248Z" fill="#FFBBFA"/>
<path d="M73.2529 137.11L72.6052 137.484L44.7129 121.411L45.3607 121.037L73.2529 137.11Z" fill="#C858F0"/>
<path d="M81.9948 141.485C82.1378 141.534 82.2619 141.625 82.3499 141.747C82.4378 141.87 82.4851 142.016 82.4851 142.167C82.4851 142.317 82.4378 142.465 82.3499 142.587C82.2619 142.709 82.1378 142.801 81.9948 142.849C81.6281 143.035 81.2226 143.131 80.8114 143.131C80.4001 143.131 79.9947 143.035 79.6278 142.849C79.4849 142.801 79.3608 142.709 79.2729 142.587C79.185 142.465 79.1377 142.317 79.1377 142.167C79.1377 142.016 79.185 141.87 79.2729 141.747C79.3608 141.625 79.4849 141.534 79.6278 141.485C79.9947 141.3 80.4001 141.202 80.8114 141.202C81.2226 141.202 81.6281 141.3 81.9948 141.485Z" fill="#C858F0"/>
<path d="M87.7577 144.805C87.9006 144.854 88.0248 144.946 88.1126 145.068C88.2006 145.191 88.2479 145.337 88.2479 145.488C88.2479 145.638 88.2006 145.785 88.1126 145.908C88.0248 146.03 87.9006 146.122 87.7577 146.17C87.3909 146.356 86.9855 146.452 86.5742 146.452C86.163 146.452 85.7576 146.356 85.3908 146.17C85.248 146.122 85.1238 146.03 85.0358 145.908C84.9479 145.785 84.9006 145.638 84.9006 145.488C84.9006 145.337 84.9479 145.191 85.0358 145.068C85.1238 144.946 85.248 144.854 85.3908 144.805C85.7576 144.621 86.163 144.523 86.5742 144.523C86.9855 144.523 87.3909 144.621 87.7577 144.805Z" fill="#C858F0"/>
<path d="M93.4415 148.081C93.5844 148.13 93.7086 148.221 93.7965 148.343C93.8844 148.466 93.9317 148.612 93.9317 148.763C93.9317 148.914 93.8844 149.061 93.7965 149.183C93.7086 149.305 93.5844 149.397 93.4415 149.445C93.0748 149.631 92.6693 149.728 92.2581 149.728C91.8469 149.728 91.4414 149.631 91.0747 149.445C90.9318 149.397 90.8076 149.305 90.7197 149.183C90.6318 149.061 90.5845 148.914 90.5845 148.763C90.5845 148.612 90.6318 148.466 90.7197 148.343C90.8076 148.221 90.9318 148.13 91.0747 148.081C91.4414 147.896 91.8469 147.798 92.2581 147.798C92.6693 147.798 93.0748 147.896 93.4415 148.081Z" fill="#C858F0"/>
<path d="M99.1679 151.381C99.3106 151.429 99.4343 151.521 99.5229 151.644C99.6106 151.766 99.6581 151.912 99.6581 152.063C99.6581 152.214 99.6106 152.361 99.5229 152.482C99.4343 152.605 99.3106 152.697 99.1679 152.745C98.8007 152.931 98.3957 153.027 97.9842 153.027C97.5727 153.027 97.1678 152.931 96.8005 152.745C96.6579 152.697 96.5341 152.605 96.4457 152.482C96.3578 152.361 96.3105 152.214 96.3105 152.063C96.3105 151.912 96.3578 151.766 96.4457 151.644C96.5341 151.521 96.6579 151.429 96.8005 151.381C97.1678 151.195 97.5727 151.099 97.9842 151.099C98.3957 151.099 98.8007 151.195 99.1679 151.381Z" fill="#C858F0"/>
<path d="M103.666 156.302C104.591 156.302 105.34 155.87 105.34 155.337C105.34 154.804 104.591 154.372 103.666 154.372C102.742 154.372 101.992 154.804 101.992 155.337C101.992 155.87 102.742 156.302 103.666 156.302Z" fill="#C858F0"/>
<path d="M112.766 125.193L116.197 123.215L115.753 122.959L112.322 124.937L112.766 125.193ZM97.4629 134.011L105.146 129.583L104.702 129.327L97.0186 133.755L97.4629 134.011ZM105.75 129.235L112.162 125.541L111.718 125.284L105.305 128.979L105.75 129.235ZM96.8595 134.359L96.4154 134.103L85.5253 140.378L85.9696 140.634L96.8595 134.359ZM116.801 122.868L121.675 120.059L121.23 119.803L116.356 122.611L116.801 122.868ZM84.2654 139.584L87.8598 137.513L87.4157 137.257L83.8213 139.328L84.2654 139.584ZM115.693 120.962L116.137 121.218L120.408 118.756L119.964 118.5L115.693 120.962ZM107.801 126.022L115.534 121.565L115.09 121.31L107.356 125.766L107.801 126.022ZM103.766 128.347L107.197 126.369L106.753 126.113L103.322 128.091L103.766 128.347ZM98.895 131.154L103.163 128.695L102.718 128.439L98.4507 130.898L98.895 131.154ZM88.4633 137.165L98.2916 131.502L97.8473 131.246L88.0189 136.909L88.4633 137.165Z" fill="#DE78FF"/>
<path d="M109.02 131.062L109.464 131.318L115.877 127.622L115.432 127.366L109.02 131.062ZM108.861 131.665L108.416 131.409L100.734 135.837L101.178 136.093L108.861 131.665ZM110.226 132.399L110.671 132.654L114.938 130.195L114.494 129.939L110.226 132.399ZM115.097 129.591L115.541 129.847L118.973 127.87L118.529 127.614L115.097 129.591ZM126.865 122.81L119.132 127.266L119.576 127.522L127.31 123.066L126.865 122.81ZM99.636 139.014L99.1917 138.757L90.941 143.511L91.3853 143.767L99.636 139.014ZM123.084 122.958L116.036 127.018L116.48 127.274L123.528 123.214L123.084 122.958ZM100.575 136.44L100.13 136.184L89.1628 142.504L89.6071 142.761L100.575 136.44ZM123.687 122.61L124.131 122.865L128.248 120.493L127.804 120.237L123.687 122.61ZM110.067 133.002L109.623 132.746L99.795 138.41L100.239 138.666L110.067 133.002Z" fill="#DE78FF"/>
<path d="M111.747 136.269L112.191 136.525L116.459 134.065L116.014 133.809L111.747 136.269ZM112.804 138.203L112.36 137.947L104.773 142.319L105.217 142.575L112.804 138.203ZM120.049 131.485L116.618 133.461L117.062 133.717L120.494 131.741L120.049 131.485ZM120.653 131.137L121.097 131.392L128.83 126.936L128.386 126.68L120.653 131.137ZM128.711 129.037L133.202 126.449L132.758 126.193L128.266 128.781L128.711 129.037ZM101.157 142.884L100.712 142.627L95.1519 145.831L95.5962 146.088L101.157 142.884ZM111.144 136.616L101.316 142.28L101.76 142.536L111.588 136.872L111.144 136.616ZM112.963 137.6L113.408 137.855L121.09 133.428L120.647 133.172L112.963 137.6ZM127.663 129.129L121.25 132.824L121.694 133.08L128.107 129.385L127.663 129.129ZM131.296 125.003L128.989 126.333L129.434 126.589L131.74 125.259L131.296 125.003ZM104.613 142.923L104.169 142.668L96.889 146.862L97.3333 147.118L104.613 142.923Z" fill="#DE78FF"/>
<path d="M114.491 143.823L122.173 139.396L121.729 139.14L114.046 143.567L114.491 143.823ZM122.777 139.048L129.19 135.353L128.746 135.097L122.332 138.792L122.777 139.048ZM113.887 144.171L113.443 143.915L102.553 150.191L102.997 150.447L113.887 144.171ZM101.293 149.396L104.887 147.325L104.443 147.069L100.848 149.14L101.293 149.396ZM132.721 130.774L133.165 131.03L137.436 128.569L136.992 128.313L132.721 130.774ZM124.828 135.834L132.561 131.377L132.117 131.122L124.384 135.578L124.828 135.834ZM120.794 138.159L124.224 136.182L123.78 135.926L120.349 137.903L120.794 138.159ZM115.923 140.966L120.19 138.507L119.746 138.251L115.478 140.71L115.923 140.966ZM105.491 146.978L115.318 141.314L114.875 141.058L105.046 146.722L105.491 146.978Z" fill="#DE78FF"/>
<path d="M130.838 138.408L131.282 138.664L137.693 134.968L137.249 134.712L130.838 138.408Z" fill="#DE78FF"/>
<path d="M124.911 143.854L125.355 144.111L129.622 141.651L129.178 141.394L124.911 143.854Z" fill="#DE78FF"/>
<path d="M130.233 138.755L122.55 143.183L122.995 143.439L130.677 139.012L130.233 138.755Z" fill="#DE78FF"/>
<path d="M136.414 137.225L129.781 141.048L130.226 141.304L136.858 137.482L136.414 137.225Z" fill="#DE78FF"/>
<path d="M122.392 143.787L121.948 143.53L106.454 152.459L106.898 152.715L122.392 143.787Z" fill="#DE78FF"/>
<path d="M137.854 134.365L138.298 134.62L141.728 132.642L141.284 132.388L137.854 134.365Z" fill="#DE78FF"/>
<path d="M114.322 150.469L113.877 150.214L108.317 153.418L108.761 153.673L114.322 150.469Z" fill="#DE78FF"/>
<path d="M124.309 144.202L114.48 149.865L114.924 150.121L124.751 144.458L124.309 144.202Z" fill="#DE78FF"/>
<path d="M141.889 132.039L142.333 132.295L145.242 130.62L144.799 130.363L141.889 132.039Z" fill="#DE78FF"/>
<path d="M171.268 112.963C171.168 112.905 171.086 112.94 171.086 113.04V114.02L158.805 106.942V105.962C158.799 105.903 158.78 105.848 158.748 105.798C158.717 105.749 158.675 105.707 158.624 105.678C158.524 105.619 158.443 105.654 158.443 105.754V106.734L146.162 99.6568V98.6764C146.156 98.618 146.137 98.5619 146.106 98.5124C146.074 98.4629 146.031 98.4214 145.981 98.3914C145.881 98.3337 145.8 98.3679 145.8 98.4676V99.4481L133.518 92.371V91.3904C133.513 91.3321 133.493 91.276 133.462 91.2265C133.43 91.1771 133.387 91.1357 133.337 91.1056C133.237 91.0477 133.156 91.0819 133.156 91.1816V92.1621L120.875 85.085V84.1044C120.869 84.0461 120.849 83.99 120.818 83.9405C120.786 83.8911 120.744 83.8497 120.694 83.8196C120.594 83.7617 120.512 83.7961 120.512 83.8957V84.8763L108.231 77.799V76.8184C108.225 76.7601 108.206 76.704 108.174 76.6545C108.142 76.6051 108.1 76.5637 108.05 76.5336C107.95 76.4759 107.869 76.5101 107.869 76.6097V77.5903L97.3022 71.5015L95.5875 70.5134V61.5861L96.6874 62.2199C96.7874 62.2776 96.8686 62.2434 96.8686 62.1436C96.8628 62.0852 96.8432 62.0289 96.812 61.9794C96.78 61.9298 96.7374 61.8883 96.6874 61.8581L95.5875 61.2247V52.2978L96.6874 52.9315C96.7874 52.9892 96.8686 52.955 96.8686 52.8554C96.8628 52.797 96.8432 52.7407 96.812 52.6911C96.78 52.6415 96.7374 52.6 96.6874 52.5699L95.5875 51.9363V43.0096L96.6874 43.6432C96.7874 43.7009 96.8686 43.6667 96.8686 43.5672C96.8628 43.5087 96.8432 43.4524 96.812 43.4029C96.78 43.3533 96.7374 43.3118 96.6874 43.2817L95.5875 42.648V33.7208L96.6874 34.3545C96.7874 34.4122 96.8686 34.378 96.8686 34.2784C96.8628 34.22 96.8432 34.1637 96.812 34.1141C96.78 34.0646 96.7374 34.0231 96.6874 33.993L95.5875 33.3593V24.4324L96.6874 25.0661C96.7874 25.124 96.8686 25.0898 96.8686 24.9901C96.8628 24.9316 96.8432 24.8754 96.812 24.8258C96.78 24.7762 96.7374 24.7347 96.6874 24.7046L94.1755 23.2573C94.0752 23.1994 93.9941 23.2338 93.9941 23.3337C94 23.3921 94.0194 23.4483 94.0509 23.4978C94.0823 23.5473 94.125 23.5888 94.1755 23.6189L95.2252 24.2237V33.1506L94.1755 32.5455C94.0752 32.4878 93.9941 32.522 93.9941 32.6221C94 32.6804 94.0194 32.7366 94.0509 32.7861C94.0823 32.8356 94.1251 32.877 94.1755 32.9071L95.2252 33.5121V42.4393L94.1755 41.8342C94.0752 41.7766 93.9941 41.8108 93.9941 41.9108C94 41.9692 94.0194 42.0254 94.0509 42.0749C94.0823 42.1244 94.1251 42.1658 94.1755 42.1958L95.2252 42.8008V51.7275L94.1755 51.1227C94.0752 51.0648 93.9941 51.099 93.9941 51.1991C94 51.2574 94.0194 51.3136 94.0509 51.3631C94.0823 51.4126 94.1251 51.4541 94.1755 51.4842L95.2252 52.089V61.0159L94.1755 60.4109C94.0752 60.3531 93.9941 60.3873 93.9941 60.4875C94 60.5458 94.0194 60.6019 94.0509 60.6514C94.0823 60.7009 94.1251 60.7424 94.1755 60.7725L95.2252 61.3774V70.4851C95.231 70.5435 95.2503 70.5998 95.2818 70.6494C95.3134 70.699 95.3561 70.7404 95.4066 70.7706L97.3022 71.8631L107.869 77.9518V78.9875C107.874 79.0459 107.893 79.1022 107.925 79.1518C107.956 79.2014 107.999 79.2429 108.05 79.273C108.15 79.3305 108.231 79.2963 108.231 79.1962V78.1605L120.512 85.2378V86.2735C120.518 86.3319 120.537 86.3882 120.569 86.4378C120.6 86.4873 120.643 86.5289 120.694 86.559C120.794 86.6165 120.875 86.5823 120.875 86.4822V85.4465L133.156 92.5238V93.5595C133.162 93.6179 133.181 93.6742 133.213 93.7237C133.244 93.7733 133.286 93.8149 133.337 93.845C133.437 93.9025 133.518 93.8683 133.518 93.7682V92.7325L145.8 99.8096V100.845C145.806 100.904 145.824 100.96 145.856 101.01C145.888 101.059 145.93 101.101 145.981 101.131C146.081 101.189 146.162 101.154 146.162 101.054V100.018L158.443 107.095V108.131C158.448 108.189 158.468 108.246 158.499 108.296C158.531 108.345 158.574 108.387 158.624 108.417C158.724 108.474 158.805 108.44 158.805 108.34V107.304L171.086 114.381V115.417C171.092 115.475 171.112 115.532 171.143 115.582C171.175 115.631 171.218 115.672 171.268 115.703C171.368 115.76 171.449 115.726 171.449 115.626V113.248C171.443 113.19 171.424 113.134 171.392 113.084C171.361 113.035 171.318 112.993 171.268 112.963Z" fill="#8821D8"/>
<path d="M92.3938 69.6435C92.3955 69.7302 92.3734 69.8156 92.3301 69.8906C92.3138 69.918 92.2917 69.9415 92.2652 69.9593C92.2388 69.9772 92.2087 69.989 92.1772 69.9937C92.0724 70.0033 91.9677 69.9744 91.8827 69.9125C91.7661 69.8477 91.6645 69.759 91.5846 69.6523C91.5209 69.568 91.4706 69.4745 91.4354 69.375C91.3965 69.2723 91.3748 69.1639 91.3711 69.0542V67.52C91.3702 67.4347 91.3924 67.3506 91.4354 67.2768C91.4506 67.2487 91.4718 67.2244 91.4976 67.2056C91.5234 67.1868 91.5531 67.174 91.5846 67.1681C91.6905 67.1612 91.7957 67.1905 91.8827 67.2513C91.9974 67.3165 92.0976 67.4044 92.1772 67.5095C92.2421 67.5956 92.2937 67.6909 92.3301 67.7924C92.3684 67.8938 92.39 68.0009 92.3938 68.1092V69.6435ZM92.0104 67.8885C92.0118 67.8212 91.9946 67.7548 91.9607 67.6966C91.9408 67.6663 91.9141 67.6412 91.8827 67.6232C91.8154 67.5843 91.7833 67.6157 91.769 67.6536C91.758 67.6814 91.7531 67.7112 91.7548 67.7411V69.2754C91.7538 69.3438 91.7723 69.4112 91.8083 69.4694C91.8268 69.499 91.8524 69.5234 91.8827 69.5406C91.95 69.5795 91.9819 69.5552 91.9962 69.5102C92.008 69.4826 92.0128 69.4526 92.0104 69.4227V67.8885Z" fill="#8821D8"/>
<path d="M92.0359 59.4506C92.04 59.4005 92.031 59.3501 92.0099 59.3044C91.9887 59.2588 91.9561 59.2193 91.9152 59.1899C91.8989 59.1795 91.8796 59.1748 91.8604 59.1764C91.8411 59.1782 91.823 59.1861 91.8088 59.1991C91.7828 59.2245 91.7675 59.2588 91.766 59.295L91.443 59.1089V57.7374L92.3696 58.2714V58.6508L91.7731 58.307V58.8492C91.8202 58.8406 91.8686 58.842 91.9152 58.8533C92.1198 58.949 92.2781 59.1217 92.3554 59.3336C92.395 59.4421 92.4167 59.5562 92.4196 59.6717V60.253C92.4301 60.3859 92.4042 60.5192 92.3448 60.6385C92.2773 60.7417 92.1496 60.7779 91.9187 60.6448C91.717 60.5345 91.5647 60.3518 91.4928 60.1338C91.436 59.9513 91.4106 59.7605 91.418 59.5694L91.8016 59.7907V59.8932C91.7976 59.9897 91.8061 60.0863 91.8266 60.1807C91.8321 60.2077 91.8431 60.2332 91.859 60.2558C91.8748 60.2783 91.8952 60.2974 91.9187 60.3118C91.958 60.3342 91.9895 60.3276 92.0074 60.2886C92.0317 60.2053 92.0413 60.1185 92.0359 60.0319V59.4506Z" fill="#8821D8"/>
<path d="M90.4722 48.4548V48.2101C90.5226 48.2341 90.5777 48.2468 90.6336 48.2471C90.6894 48.2473 90.7447 48.2353 90.7953 48.2117C90.8301 48.1901 90.8592 48.1609 90.8808 48.1262L91.1115 48.2593V50.8643L90.728 50.6433V48.6021L90.4722 48.4548Z" fill="#8821D8"/>
<path d="M92.3938 51.0678C92.3955 51.1544 92.3734 51.2398 92.3301 51.3148C92.3139 51.3423 92.2918 51.3658 92.2653 51.3836C92.2388 51.4015 92.2087 51.4133 92.1772 51.418C92.0724 51.4275 91.9677 51.3986 91.8827 51.3368C91.7661 51.272 91.6644 51.1833 91.5846 51.0766C91.5209 50.9923 91.4706 50.8988 91.4354 50.7992C91.3965 50.6965 91.3748 50.5882 91.3711 50.4785V48.9443C91.3702 48.8589 91.3924 48.7749 91.4354 48.701C91.4506 48.6729 91.4718 48.6486 91.4976 48.6298C91.5234 48.611 91.5531 48.5982 91.5846 48.5924C91.6905 48.5855 91.7957 48.6148 91.8827 48.6755C91.9974 48.7408 92.0976 48.8287 92.1772 48.9338C92.2421 49.0199 92.2937 49.1152 92.3301 49.2166C92.3684 49.3181 92.3899 49.4251 92.3938 49.5335V51.0678ZM92.0104 49.3128C92.0118 49.2455 91.9946 49.179 91.9607 49.1208C91.9408 49.0906 91.9141 49.0655 91.8827 49.0474C91.8154 49.0086 91.7833 49.04 91.769 49.0779C91.758 49.1057 91.7531 49.1355 91.7548 49.1653V50.6997C91.7538 50.7681 91.7723 50.8354 91.8083 50.8936C91.8268 50.9232 91.8524 50.9477 91.8827 50.9651C91.95 51.0037 91.9819 50.9795 91.9962 50.9345C92.008 50.9069 92.0128 50.8769 92.0104 50.847V49.3128Z" fill="#8821D8"/>
<path d="M90.5078 39.186V38.9414C90.5581 38.9655 90.6132 38.9781 90.6691 38.9784C90.725 38.9786 90.7801 38.9666 90.8308 38.943C90.8656 38.9215 90.8949 38.8923 90.9165 38.8575L91.1471 38.9906V41.5957L90.7635 41.3747V39.3334L90.5078 39.186Z" fill="#8821D8"/>
<path d="M92.0359 40.874C92.04 40.8238 92.031 40.7734 92.0099 40.7277C91.9887 40.682 91.9561 40.6426 91.9152 40.6132C91.8989 40.6028 91.8796 40.5981 91.8604 40.5998C91.8411 40.6014 91.823 40.6094 91.8088 40.6224C91.7827 40.6478 91.7674 40.6822 91.766 40.7184L91.443 40.5321V39.1608L92.3696 39.6947V40.0741L91.7731 39.7303V40.2725C91.8202 40.264 91.8686 40.2654 91.9152 40.2766C92.1198 40.3722 92.2781 40.545 92.3554 40.757C92.395 40.8654 92.4167 40.9796 92.4196 41.0949V41.6763C92.4301 41.8092 92.4042 41.9425 92.3448 42.0619C92.2773 42.165 92.1496 42.2011 91.9187 42.0681C91.717 41.9578 91.5647 41.7752 91.4928 41.5571C91.436 41.3746 91.4106 41.1837 91.418 40.9928L91.8016 41.2139V41.3165C91.7976 41.413 91.8061 41.5096 91.8266 41.6039C91.8321 41.6309 91.8431 41.6565 91.859 41.679C91.8748 41.7016 91.8952 41.7207 91.9187 41.7351C91.958 41.7577 91.9895 41.7509 92.0074 41.7119C92.0317 41.6286 92.0413 41.5418 92.0359 41.4553V40.874Z" fill="#8821D8"/>
<path d="M90.0915 29.9199V29.7392C90.0769 29.5952 90.112 29.4503 90.1909 29.3288C90.2653 29.2475 90.393 29.2399 90.6026 29.3607C90.7767 29.4575 90.9177 29.6041 91.0076 29.7816C91.0819 29.9455 91.1183 30.1239 91.114 30.3037C91.1034 30.5672 91.0265 30.8239 90.8904 31.05C90.7837 31.234 90.6574 31.4061 90.5139 31.5632L91.1211 31.9132V32.2925L90.0808 31.6931V31.3137C90.1971 31.2008 90.3039 31.0788 90.4002 30.9486C90.4892 30.829 90.5631 30.699 90.6204 30.5614C90.6848 30.4182 90.7221 30.2643 90.7305 30.1076C90.7323 30.0321 90.7251 29.9565 90.7091 29.8827C90.7034 29.849 90.6911 29.8169 90.6728 29.7881C90.6545 29.7593 90.6306 29.7345 90.6026 29.715C90.5942 29.7077 90.5841 29.7028 90.5731 29.7008C90.5622 29.6987 90.5509 29.6996 90.5404 29.7032C90.53 29.7069 90.5207 29.7134 90.5136 29.7218C90.5063 29.7302 90.5015 29.7405 90.4996 29.7513C90.4803 29.8192 90.4719 29.8897 90.4746 29.9601V30.1407L90.0915 29.9199Z" fill="#8821D8"/>
<path d="M92.3938 32.4904C92.3955 32.5769 92.3734 32.6624 92.3301 32.7374C92.3139 32.7649 92.2918 32.7884 92.2653 32.8062C92.2388 32.824 92.2087 32.8358 92.1772 32.8406C92.0723 32.8501 91.9677 32.8212 91.8827 32.7593C91.7661 32.6945 91.6644 32.6058 91.5846 32.4991C91.5209 32.4149 91.4706 32.3213 91.4354 32.2218C91.3965 32.1192 91.3749 32.0108 91.3711 31.9012V30.3669C91.3701 30.2815 91.3924 30.1975 91.4354 30.1238C91.4505 30.0956 91.4718 30.0713 91.4976 30.0524C91.5234 30.0336 91.5531 30.0208 91.5846 30.015C91.6905 30.0081 91.7957 30.0374 91.8827 30.0981C91.9974 30.1634 92.0976 30.2513 92.1772 30.3563C92.242 30.4425 92.2936 30.5378 92.3301 30.6392C92.3684 30.7407 92.39 30.8478 92.3938 30.9562V32.4904ZM92.0104 30.7354C92.0118 30.668 91.9946 30.6016 91.9607 30.5433C91.9408 30.5132 91.9141 30.488 91.8827 30.47C91.8154 30.4312 91.7833 30.4625 91.769 30.5006C91.758 30.5283 91.7531 30.5581 91.7548 30.5879V32.1223C91.7538 32.1907 91.7723 32.2579 91.8083 32.3162C91.8268 32.3457 91.8524 32.3703 91.8827 32.3876C91.95 32.4262 91.9819 32.402 91.9962 32.357C92.008 32.3294 92.0128 32.2994 92.0104 32.2695V30.7354Z" fill="#8821D8"/>
<path d="M90.1274 20.6512V20.4706C90.1128 20.3265 90.1479 20.1817 90.2266 20.0601C90.3011 19.9789 90.4289 19.9712 90.6385 20.0918C90.8125 20.1888 90.9535 20.3354 91.0433 20.513C91.1177 20.6768 91.1541 20.8552 91.1499 21.035C91.1393 21.2986 91.0624 21.5552 90.9263 21.7813C90.8195 21.9654 90.6934 22.1374 90.5498 22.2946L91.157 22.6445V23.0239L90.1167 22.4244V22.045C90.2329 21.9321 90.3397 21.81 90.4361 21.6799C90.5251 21.5603 90.599 21.4303 90.6563 21.2927C90.7206 21.1495 90.7579 20.9957 90.7663 20.8389C90.768 20.7634 90.7608 20.6879 90.7448 20.614C90.7392 20.5804 90.7269 20.5482 90.7086 20.5195C90.6904 20.4907 90.6665 20.4658 90.6385 20.4464C90.6301 20.4391 90.6199 20.4342 90.609 20.4321C90.5981 20.43 90.5869 20.4308 90.5764 20.4345C90.566 20.4382 90.5567 20.4446 90.5494 20.453C90.5422 20.4614 90.5375 20.4716 90.5355 20.4825C90.5162 20.5504 90.5078 20.6209 90.5105 20.6915V20.8721L90.1274 20.6512Z" fill="#8821D8"/>
<path d="M92.0359 22.2964C92.04 22.2463 92.031 22.1959 92.0099 22.1502C91.9887 22.1046 91.9561 22.0651 91.9152 22.0357C91.8989 22.0253 91.8796 22.0207 91.8604 22.0223C91.8411 22.024 91.823 22.0319 91.8088 22.0449C91.7827 22.0703 91.7674 22.1046 91.766 22.1409L91.443 21.9548V20.5833L92.3696 21.1172V21.4966L91.7731 21.1528V21.695C91.8202 21.6865 91.8686 21.6879 91.9152 21.6991C92.1198 21.7948 92.2781 21.9676 92.3554 22.1796C92.395 22.288 92.4167 22.4022 92.4196 22.5176V23.0988C92.4301 23.2317 92.4042 23.365 92.3448 23.4844C92.2773 23.5875 92.1496 23.6236 91.9187 23.4906C91.717 23.3803 91.5647 23.1977 91.4928 22.9796C91.436 22.7972 91.4106 22.6063 91.418 22.4154L91.8016 22.6364V22.7392C91.7976 22.8356 91.8061 22.9322 91.8266 23.0265C91.8321 23.0534 91.8431 23.079 91.859 23.1016C91.8748 23.1241 91.8952 23.1432 91.9187 23.1575C91.958 23.1802 91.9895 23.1734 92.0074 23.1344C92.0317 23.0511 92.0413 22.9643 92.0359 22.8777V22.2964Z" fill="#8821D8"/>
<g opacity="0.5">
<path d="M101.728 72.555C101.698 72.5377 101.672 72.5162 101.649 72.4914C101.559 72.396 101.521 72.2663 101.566 72.2017L114.209 53.4803C114.252 53.4154 114.361 53.4412 114.451 53.536C114.541 53.6315 114.578 53.7611 114.535 53.8258L101.891 72.5472C101.86 72.5936 101.795 72.5938 101.728 72.555Z" fill="#DE78FF"/>
<path d="M127.016 83.412C126.946 83.3688 126.891 83.3051 126.858 83.2295L114.214 53.6513C114.165 53.5357 114.196 53.4431 114.283 53.4442C114.338 53.4555 114.391 53.4807 114.433 53.5176C114.477 53.5544 114.509 53.6015 114.53 53.6545L127.174 83.2327C127.223 83.3483 127.192 83.4409 127.106 83.4398C127.074 83.4382 127.043 83.4286 127.016 83.412Z" fill="#DE78FF"/>
<path d="M127.015 83.412C126.947 83.3693 126.892 83.3069 126.86 83.2329C126.809 83.1174 126.837 83.0232 126.924 83.0221L139.566 82.8772C139.622 82.8878 139.675 82.9123 139.717 82.9485C139.761 82.9847 139.794 83.0314 139.815 83.0841C139.866 83.1997 139.837 83.2937 139.751 83.295L127.107 83.4399C127.075 83.4389 127.043 83.4292 127.015 83.412Z" fill="#DE78FF"/>
<path d="M139.658 83.2667C139.625 83.2467 139.595 83.2214 139.57 83.1918C139.483 83.093 139.452 82.9649 139.502 82.9061L152.145 67.8996C152.195 67.8415 152.305 67.8768 152.392 67.9737C152.479 68.0727 152.509 68.2008 152.46 68.2593L139.816 83.2661C139.783 83.3055 139.722 83.3033 139.658 83.2667Z" fill="#DE78FF"/>
<path d="M152.303 68.2604C152.247 68.226 152.2 68.1782 152.167 68.1211C152.1 68.0077 152.108 67.8979 152.183 67.8751L164.827 64.0152C164.903 63.994 165.016 64.0661 165.083 64.1783C165.148 64.2912 165.142 64.4014 165.066 64.4238L152.422 68.2837C152.402 68.288 152.381 68.2882 152.36 68.2842C152.34 68.2802 152.32 68.2721 152.303 68.2604Z" fill="#DE78FF"/>
<path d="M101.729 66.9825C101.672 66.9482 101.625 66.9003 101.593 66.8432C101.526 66.7299 101.533 66.6202 101.608 66.5973L114.252 62.7367C114.328 62.7155 114.443 62.7884 114.508 62.8996C114.574 63.013 114.567 63.1228 114.491 63.1456L101.848 67.0059C101.827 67.0103 101.806 67.0104 101.785 67.0063C101.765 67.0023 101.746 66.9942 101.729 66.9825Z" fill="#DE78FF"/>
<path d="M114.372 63.122C114.333 63.0985 114.299 63.0681 114.27 63.0322C114.188 62.9287 114.166 62.8037 114.222 62.7533L126.866 51.4621C126.922 51.4119 127.035 51.4567 127.118 51.5593C127.2 51.6629 127.222 51.7879 127.165 51.8383L114.522 63.1293C114.499 63.1439 114.472 63.1511 114.445 63.1498C114.419 63.1485 114.393 63.1387 114.372 63.122Z" fill="#DE78FF"/>
<path d="M139.659 72.1208C139.606 72.0886 139.562 72.0439 139.53 71.9907L126.886 51.7011C126.816 51.5894 126.818 51.476 126.89 51.4482C126.963 51.4202 127.077 51.4887 127.146 51.5995L139.789 71.8891C139.858 72.0008 139.857 72.1143 139.785 72.142C139.764 72.148 139.741 72.1492 139.72 72.1455C139.698 72.1419 139.677 72.1334 139.659 72.1208Z" fill="#DE78FF"/>
<path d="M152.303 83.1223C152.252 83.085 139.608 72.0835 139.608 72.0835C139.563 72.0496 139.528 72.0045 139.507 71.9528C139.485 71.901 139.478 71.8444 139.485 71.7889C139.513 71.7091 139.616 71.7139 139.71 71.7958L152.354 82.7974C152.399 82.8313 152.433 82.8765 152.454 82.9283C152.476 82.9801 152.484 83.0366 152.476 83.0922C152.453 83.1575 152.381 83.1672 152.303 83.1223Z" fill="#DE78FF"/>
<path d="M164.946 105.269C164.889 105.234 164.842 105.185 164.809 105.126L152.165 82.9791C152.1 82.8653 152.109 82.7566 152.186 82.7359C152.263 82.7176 152.377 82.792 152.44 82.9035L165.084 105.051C165.149 105.165 165.14 105.273 165.064 105.294C165.023 105.301 164.981 105.293 164.946 105.269Z" fill="#DE78FF"/>
<path d="M101.728 63.6002C101.645 63.5491 101.584 63.4692 101.557 63.3759C101.525 63.263 101.578 63.1913 101.673 63.2159L114.317 66.4527C114.372 66.4732 114.421 66.5063 114.46 66.5493C114.5 66.5925 114.529 66.6442 114.545 66.7005C114.575 66.8132 114.522 66.8848 114.427 66.8604L101.784 63.6236C101.764 63.6184 101.746 63.6106 101.728 63.6002Z" fill="#C858F0"/>
<path d="M114.372 66.8369C114.325 66.8088 114.286 66.7711 114.254 66.7263C114.178 66.618 114.169 66.4991 114.234 66.4597L126.878 58.8842C126.942 58.8458 127.057 58.9024 127.133 59.0109C127.21 59.1192 127.218 59.2382 127.154 59.2775L114.51 66.8529C114.487 66.8626 114.463 66.8661 114.439 66.8633C114.414 66.8605 114.391 66.8514 114.372 66.8369Z" fill="#C858F0"/>
<path d="M127.015 59.2616C126.969 59.2334 126.928 59.1957 126.898 59.1509C126.822 59.0424 126.813 58.9233 126.878 58.8843L139.521 51.3085C139.586 51.2708 139.7 51.328 139.776 51.4352C139.853 51.5435 139.862 51.6628 139.797 51.7018L127.153 59.2775C127.131 59.2872 127.106 59.2907 127.082 59.2879C127.058 59.285 127.035 59.276 127.015 59.2616Z" fill="#C858F0"/>
<path d="M152.303 96.126C152.221 96.0753 152.159 95.9967 152.131 95.9046L139.488 51.4645C139.456 51.3518 139.506 51.2781 139.601 51.3008C139.656 51.3209 139.705 51.3535 139.745 51.396C139.784 51.4387 139.814 51.49 139.83 51.5459L152.474 95.986C152.506 96.0987 152.455 96.1724 152.361 96.1499C152.34 96.1448 152.321 96.1368 152.303 96.126Z" fill="#C858F0"/>
<path d="M164.946 108.985C164.919 108.969 164.895 108.949 164.873 108.927L152.229 96.0682C152.187 96.0338 152.156 95.9879 152.14 95.9361C152.123 95.8844 152.122 95.829 152.137 95.7767C152.177 95.7089 152.286 95.7305 152.376 95.8223L165.019 108.681C165.061 108.715 165.092 108.761 165.109 108.813C165.125 108.864 165.126 108.92 165.112 108.972C165.082 109.023 165.015 109.025 164.946 108.985Z" fill="#C858F0"/>
<path d="M101.728 59.5515C101.697 59.533 101.668 59.5097 101.644 59.4828C101.556 59.3854 101.521 59.2563 101.567 59.1944L114.211 42.3306C114.258 42.2706 114.369 42.3009 114.456 42.3951C114.545 42.4925 114.579 42.6216 114.532 42.6835L101.889 59.5473C101.857 59.5898 101.793 59.5893 101.728 59.5515Z" fill="#FFBBFA"/>
<path d="M127.015 61.1195C126.968 61.0905 126.927 61.0516 126.896 61.0052L114.253 42.5732C114.177 42.4635 114.17 42.3456 114.236 42.3087C114.303 42.2733 114.417 42.3326 114.491 42.4402L127.135 60.8725C127.21 60.9821 127.218 61.1002 127.151 61.137C127.129 61.1457 127.105 61.1487 127.081 61.1456C127.058 61.1426 127.035 61.1336 127.015 61.1195Z" fill="#FFBBFA"/>
<path d="M139.659 77.9707C139.616 77.9448 139.578 77.9105 139.549 77.8699L126.273 60.0741C126.193 59.9679 126.178 59.8457 126.239 59.8012C126.301 59.7579 126.414 59.8083 126.493 59.9143L139.77 77.7101C139.848 77.8163 139.864 77.9384 139.803 77.9828C139.78 77.9947 139.754 77.9999 139.729 77.9977C139.703 77.9956 139.679 77.9862 139.659 77.9707Z" fill="#FFBBFA"/>
<path d="M139.659 77.971C139.603 77.9372 139.557 77.89 139.525 77.8338C139.457 77.7214 139.463 77.6103 139.538 77.5861L152.181 73.4485C152.256 73.4258 152.37 73.4961 152.437 73.6088C152.504 73.7212 152.499 73.8324 152.424 73.8568L139.78 77.9941C139.76 77.9987 139.738 77.999 139.717 77.995C139.697 77.9911 139.676 77.9828 139.659 77.971Z" fill="#FFBBFA"/>
<path d="M152.303 73.8335C152.229 73.7878 152.172 73.7192 152.14 73.6381C152.096 73.5231 152.133 73.4364 152.223 73.4442L164.867 74.5614C164.923 74.5759 164.973 74.6039 165.016 74.6428C165.058 74.6816 165.091 74.7303 165.109 74.7844C165.153 74.8993 165.116 74.986 165.026 74.9782L152.382 73.8609C152.354 73.8576 152.327 73.8482 152.303 73.8335Z" fill="#FFBBFA"/>
<path d="M114.372 77.9837C114.315 77.9485 114.267 77.8993 114.234 77.8405L101.59 55.6932C101.526 55.5794 101.535 55.4707 101.611 55.45C101.689 55.4319 101.802 55.5054 101.866 55.6177L114.51 77.765C114.575 77.8788 114.566 77.9875 114.49 78.0081C114.449 78.0155 114.407 78.0067 114.372 77.9837Z" fill="#FFBBFA"/>
<path d="M114.372 77.9836C114.316 77.9493 114.269 77.9014 114.236 77.8443C114.17 77.7308 114.177 77.6212 114.253 77.5984L126.896 73.7376C126.973 73.7163 127.086 73.7895 127.151 73.9006C127.218 74.0141 127.21 74.1238 127.135 74.1465L114.491 78.007C114.472 78.0112 114.45 78.0114 114.43 78.0074C114.409 78.0034 114.39 77.9953 114.372 77.9836Z" fill="#FFBBFA"/>
<path d="M139.658 88.8398C139.624 88.8192 139.593 88.7928 139.566 88.762L126.924 74.0453C126.837 73.945 126.809 73.8174 126.86 73.7605C126.91 73.7045 127.023 73.7411 127.107 73.8395L139.751 88.5563C139.837 88.6565 139.866 88.7839 139.815 88.8409C139.781 88.8783 139.721 88.8755 139.658 88.8398Z" fill="#FFBBFA"/>
<path d="M139.658 88.8399C139.608 88.809 139.565 88.7669 139.533 88.7169C139.461 88.6061 139.459 88.4905 139.529 88.4584L157.136 80.3901C157.206 80.3596 157.321 80.4236 157.392 80.5331C157.464 80.6438 157.466 80.7594 157.397 80.7915L139.789 88.8601C139.767 88.867 139.744 88.8688 139.721 88.8653C139.699 88.8619 139.677 88.8531 139.658 88.8399Z" fill="#FFBBFA"/>
<path d="M157.311 80.6162C157.155 80.4803 157.107 80.3488 157.142 80.2752L164.776 64.0592C164.811 63.9861 164.915 64.0002 165.009 64.086C165.052 64.1205 165.085 64.1661 165.104 64.2179C165.123 64.2698 165.127 64.3258 165.116 64.3799L157.481 80.5961C157.454 80.6533 157.385 80.659 157.311 80.6162Z" fill="#FFBBFA"/>
</g>
<path d="M101.729 71.2911C102.031 71.4715 102.287 71.7202 102.476 72.0173C102.664 72.3143 102.78 72.6514 102.815 73.0014C102.815 73.6002 102.329 73.8053 101.729 73.4597C101.426 73.2792 101.17 73.0305 100.982 72.7335C100.793 72.4364 100.677 72.0994 100.643 71.7493C100.643 71.1506 101.129 70.9454 101.729 71.2911Z" fill="#DE78FF"/>
<path d="M114.373 52.5692C114.675 52.7496 114.931 52.9983 115.119 53.2953C115.308 53.5923 115.424 53.9294 115.459 54.2794C115.459 54.8783 114.973 55.0835 114.373 54.7376C114.07 54.5572 113.814 54.3085 113.626 54.0115C113.437 53.7145 113.321 53.3775 113.286 53.0275C113.286 52.4287 113.772 52.2235 114.373 52.5692Z" fill="#DE78FF"/>
<path d="M127.015 82.1474C127.318 82.3278 127.574 82.5765 127.763 82.8735C127.952 83.1705 128.068 83.5075 128.102 83.8575C128.102 84.4565 127.615 84.6616 127.015 84.316C126.713 84.1355 126.457 83.8867 126.269 83.5897C126.08 83.2927 125.964 82.9556 125.929 82.6056C125.929 82.0069 126.416 81.8017 127.015 82.1474Z" fill="#DE78FF"/>
<path d="M139.659 82.0024C139.962 82.1829 140.217 82.4316 140.407 82.7286C140.595 83.0256 140.712 83.3627 140.746 83.7127C140.746 84.3115 140.259 84.5167 139.659 84.171C139.357 83.9905 139.101 83.7418 138.912 83.4448C138.724 83.1477 138.607 82.8107 138.573 82.4607C138.573 81.8618 139.06 81.6567 139.659 82.0024Z" fill="#DE78FF"/>
<path d="M152.303 66.996C152.605 67.1764 152.861 67.4252 153.05 67.7223C153.239 68.0193 153.355 68.3563 153.39 68.7064C153.39 69.3051 152.903 69.5103 152.303 69.1646C152 68.9841 151.744 68.7354 151.556 68.4384C151.367 68.1414 151.251 67.8043 151.217 67.4543C151.217 66.8555 151.703 66.6504 152.303 66.996Z" fill="#DE78FF"/>
<path d="M164.947 63.1359C165.249 63.3163 165.505 63.565 165.693 63.862C165.883 64.159 165.998 64.496 166.033 64.846C166.033 65.4449 165.547 65.6501 164.947 65.3044C164.644 65.124 164.388 64.8752 164.2 64.5782C164.011 64.2811 163.895 63.9441 163.86 63.5941C163.86 62.9953 164.346 62.7902 164.947 63.1359Z" fill="#DE78FF"/>
<path d="M101.729 65.7181C102.031 65.8985 102.287 66.1473 102.476 66.4443C102.664 66.7413 102.78 67.0783 102.815 67.4283C102.815 68.0271 102.329 68.2322 101.729 67.8866C101.426 67.7061 101.17 67.4574 100.981 67.1604C100.793 66.8634 100.677 66.5264 100.643 66.1764C100.643 65.5775 101.129 65.3723 101.729 65.7181Z" fill="#DE78FF"/>
<path d="M114.373 61.8576C114.675 62.0381 114.931 62.2868 115.119 62.5838C115.308 62.8809 115.424 63.2179 115.459 63.5679C115.459 64.1668 114.973 64.3719 114.373 64.0262C114.07 63.8458 113.814 63.5971 113.626 63.3C113.437 63.003 113.321 62.6659 113.286 62.3159C113.286 61.7171 113.772 61.5119 114.373 61.8576Z" fill="#DE78FF"/>
<path d="M127.015 50.5667C127.318 50.7471 127.574 50.9959 127.763 51.2929C127.952 51.5899 128.068 51.927 128.102 52.2771C128.102 52.8758 127.615 53.081 127.015 52.7353C126.713 52.5548 126.457 52.3061 126.269 52.009C126.08 51.712 125.964 51.375 125.929 51.025C125.929 50.4262 126.416 50.221 127.015 50.5667Z" fill="#DE78FF"/>
<path d="M139.659 70.8566C139.962 71.037 140.217 71.2857 140.407 71.5827C140.595 71.8797 140.712 72.2167 140.746 72.5667C140.746 73.1655 140.259 73.3707 139.659 73.025C139.357 72.8446 139.101 72.5958 138.912 72.2988C138.724 72.0018 138.607 71.6648 138.573 71.3148C138.573 70.7159 139.06 70.5107 139.659 70.8566Z" fill="#DE78FF"/>
<path d="M152.303 81.8577C152.605 82.0381 152.861 82.2869 153.05 82.5839C153.239 82.8809 153.355 83.218 153.39 83.5681C153.39 84.1668 152.903 84.372 152.303 84.0263C152 83.8458 151.744 83.5971 151.556 83.3001C151.367 83.003 151.251 82.666 151.217 82.316C151.217 81.7172 151.703 81.512 152.303 81.8577Z" fill="#DE78FF"/>
<path d="M164.947 104.005C165.249 104.185 165.505 104.434 165.693 104.731C165.883 105.028 165.998 105.365 166.033 105.715C166.033 106.314 165.547 106.519 164.947 106.173C164.644 105.993 164.388 105.745 164.2 105.448C164.011 105.151 163.895 104.814 163.86 104.463C163.86 103.864 164.346 103.659 164.947 104.005Z" fill="#DE78FF"/>
<path d="M101.729 62.0833C102.031 62.2638 102.287 62.5124 102.476 62.8095C102.664 63.1065 102.78 63.4435 102.815 63.7935C102.815 64.3925 102.329 64.5976 101.729 64.2518C101.426 64.0714 101.17 63.8226 100.981 63.5256C100.793 63.2286 100.677 62.8916 100.643 62.5416C100.643 61.9429 101.129 61.7377 101.729 62.0833Z" fill="#C858F0"/>
<path d="M114.373 65.5731C114.675 65.7535 114.931 66.0022 115.119 66.2992C115.308 66.5963 115.424 66.9333 115.459 67.2833C115.459 67.8821 114.973 68.0873 114.373 67.7416C114.07 67.5612 113.814 67.3124 113.626 67.0153C113.437 66.7183 113.321 66.3813 113.286 66.0313C113.286 65.4325 113.772 65.2273 114.373 65.5731Z" fill="#C858F0"/>
<path d="M139.659 50.4216C139.962 50.6021 140.217 50.8508 140.407 51.1479C140.595 51.4449 140.712 51.782 140.746 52.132C140.746 52.7308 140.259 52.9359 139.659 52.5902C139.357 52.4098 139.101 52.1611 138.912 51.864C138.724 51.567 138.607 51.2299 138.573 50.8799C138.573 50.2811 139.06 50.0759 139.659 50.4216Z" fill="#C858F0"/>
<path d="M152.303 94.8616C152.605 95.042 152.861 95.2907 153.05 95.5877C153.239 95.8848 153.355 96.2219 153.39 96.5719C153.39 97.1707 152.903 97.3759 152.303 97.0302C152 96.8497 151.744 96.601 151.556 96.304C151.367 96.0069 151.251 95.6699 151.217 95.3199C151.217 94.721 151.703 94.5159 152.303 94.8616Z" fill="#C858F0"/>
<path d="M164.947 107.721C165.249 107.901 165.505 108.149 165.693 108.446C165.883 108.743 165.998 109.08 166.033 109.431C166.033 110.029 165.547 110.235 164.947 109.889C164.644 109.709 164.388 109.46 164.2 109.163C164.011 108.866 163.895 108.529 163.86 108.179C163.86 107.58 164.346 107.374 164.947 107.721Z" fill="#C858F0"/>
<path d="M101.729 58.2872C102.031 58.4675 102.287 58.7163 102.476 59.0133C102.664 59.3103 102.78 59.6474 102.815 59.9973C102.815 60.5961 102.329 60.8013 101.729 60.4556C101.426 60.2751 101.17 60.0264 100.981 59.7294C100.793 59.4324 100.677 59.0954 100.643 58.7455C100.643 58.1465 101.129 57.9413 101.729 58.2872Z" fill="#FFBBFA"/>
<path d="M114.373 41.4231C114.675 41.6035 114.931 41.8522 115.119 42.1492C115.308 42.4463 115.424 42.7833 115.459 43.1333C115.459 43.7322 114.973 43.9374 114.373 43.5916C114.07 43.4112 113.814 43.1625 113.626 42.8654C113.437 42.5684 113.321 42.2313 113.286 41.8813C113.286 41.2825 113.772 41.0773 114.373 41.4231Z" fill="#FFBBFA"/>
<path d="M126.232 58.8008C126.533 58.9812 126.789 59.2299 126.979 59.527C127.167 59.824 127.283 60.161 127.318 60.5109C127.318 61.1097 126.831 61.3148 126.232 60.9692C125.929 60.7888 125.673 60.5401 125.484 60.2431C125.296 59.9461 125.179 59.609 125.145 59.2591C125.145 58.6601 125.631 58.4549 126.232 58.8008Z" fill="#FFBBFA"/>
<path d="M139.659 76.4403C139.962 76.6207 140.218 76.8695 140.407 77.1665C140.595 77.4635 140.712 77.8006 140.746 78.1507C140.746 78.7494 140.259 78.9546 139.659 78.6089C139.357 78.4284 139.101 78.1797 138.912 77.8826C138.724 77.5856 138.607 77.2486 138.573 76.8986C138.573 76.2998 139.06 76.0946 139.659 76.4403Z" fill="#FFBBFA"/>
<path d="M152.303 72.5693C152.605 72.7497 152.861 72.9983 153.05 73.2953C153.239 73.5923 153.355 73.9294 153.39 74.2794C153.39 74.8782 152.903 75.0834 152.303 74.7376C152 74.5572 151.744 74.3085 151.556 74.0115C151.367 73.7145 151.251 73.3775 151.217 73.0275C151.217 72.4285 151.703 72.2233 152.303 72.5693Z" fill="#FFBBFA"/>
<path d="M164.947 73.673C165.249 73.8534 165.505 74.1021 165.693 74.3992C165.883 74.6962 165.998 75.0333 166.033 75.3832C166.033 75.982 165.547 76.1872 164.947 75.8415C164.644 75.6611 164.388 75.4123 164.2 75.1153C164.011 74.8183 163.895 74.4812 163.86 74.1311C163.86 73.5324 164.346 73.3272 164.947 73.673Z" fill="#FFBBFA"/>
<path d="M101.729 54.572C102.031 54.7523 102.287 55.001 102.476 55.298C102.664 55.595 102.78 55.9321 102.815 56.282C102.815 56.881 102.329 57.0862 101.729 56.7403C101.426 56.5599 101.17 56.3112 100.981 56.0142C100.793 55.7172 100.677 55.3802 100.643 55.0301C100.643 54.4314 101.129 54.2262 101.729 54.572Z" fill="#FFBBFA"/>
<path d="M114.373 76.7193C114.675 76.8998 114.931 77.1485 115.119 77.4455C115.308 77.7426 115.424 78.0796 115.459 78.4296C115.459 79.0285 114.973 79.2336 114.373 78.8879C114.07 78.7075 113.814 78.4587 113.626 78.1617C113.437 77.8647 113.321 77.5276 113.286 77.1776C113.286 76.5788 113.772 76.3736 114.373 76.7193Z" fill="#FFBBFA"/>
<path d="M127.015 72.8591C127.318 73.0395 127.574 73.2882 127.763 73.5852C127.952 73.8822 128.068 74.2192 128.102 74.5692C128.102 75.168 127.615 75.3732 127.015 75.0275C126.713 74.8471 126.457 74.5983 126.269 74.3013C126.08 74.0043 125.964 73.6673 125.929 73.3173C125.929 72.7184 126.416 72.5132 127.015 72.8591Z" fill="#FFBBFA"/>
<path d="M139.659 87.5756C139.962 87.7561 140.217 88.0047 140.407 88.3017C140.595 88.5987 140.712 88.9358 140.746 89.2858C140.746 89.8847 140.259 90.0899 139.659 89.744C139.357 89.5636 139.101 89.3149 138.912 89.0179C138.724 88.7209 138.607 88.3839 138.573 88.0339C138.573 87.4351 139.06 87.2299 139.659 87.5756Z" fill="#FFBBFA"/>
<path d="M157.192 79.1703C157.494 79.3508 157.75 79.5994 157.939 79.8965C158.127 80.1935 158.244 80.5305 158.278 80.8804C158.278 81.4794 157.792 81.6846 157.192 81.3387C156.889 81.1583 156.634 80.9096 156.445 80.6126C156.256 80.3156 156.14 79.9785 156.106 79.6285C156.106 79.0298 156.592 78.8246 157.192 79.1703Z" fill="#FFBBFA"/>
<path d="M164.947 63.1359C165.249 63.3163 165.505 63.565 165.693 63.862C165.883 64.159 165.998 64.496 166.033 64.846C166.033 65.4449 165.547 65.6501 164.947 65.3044C164.644 65.124 164.388 64.8752 164.2 64.5782C164.011 64.2811 163.895 63.9441 163.86 63.5941C163.86 62.9953 164.346 62.7902 164.947 63.1359Z" fill="#FFBBFA"/>
<path d="M182.442 96.861C182.442 97.5403 181.891 97.7731 181.209 97.3809C180.867 97.1761 180.577 96.8939 180.362 96.5569C180.148 96.22 180.016 95.8376 179.977 95.4405C179.977 94.761 180.529 94.5283 181.209 94.9206C181.553 95.1253 181.843 95.4075 182.057 95.7445C182.271 96.0815 182.403 96.4639 182.442 96.861Z" fill="#DE78FF"/>
<path d="M182.44 107.952C182.44 108.632 181.888 108.864 181.208 108.472C180.864 108.268 180.574 107.986 180.36 107.649C180.146 107.311 180.014 106.929 179.975 106.532C179.975 105.853 180.527 105.619 181.208 106.012C181.55 106.217 181.841 106.499 182.055 106.836C182.268 107.173 182.4 107.555 182.44 107.952Z" fill="#FFBBFA"/>
<path d="M182.44 119.024C182.44 119.703 181.888 119.936 181.208 119.543C180.864 119.339 180.574 119.056 180.36 118.72C180.146 118.383 180.014 118 179.975 117.603C179.975 116.924 180.527 116.691 181.208 117.083C181.55 117.288 181.841 117.571 182.055 117.907C182.268 118.244 182.4 118.627 182.44 119.024Z" fill="#C858F0"/>
<path d="M182.442 74.6765C182.442 75.3557 181.891 75.5885 181.209 75.1963C180.867 74.9916 180.577 74.7094 180.362 74.3724C180.148 74.0354 180.016 73.653 179.977 73.256C179.977 72.5765 180.529 72.3437 181.209 72.736C181.553 72.9407 181.843 73.2229 182.057 73.5599C182.271 73.8969 182.403 74.2793 182.442 74.6765Z" fill="#DE78FF"/>
<path d="M182.442 85.7478C182.442 86.427 181.891 86.6598 181.209 86.2677C180.867 86.0629 180.577 85.7808 180.362 85.4437C180.148 85.1067 180.016 84.7243 179.977 84.3272C179.977 83.6479 180.529 83.4152 181.209 83.8073C181.553 84.012 181.843 84.2942 182.057 84.6312C182.271 84.9682 182.403 85.3506 182.442 85.7478Z" fill="#FFBBFA"/>
<path style="mix-blend-mode:screen" d="M114.635 64.8771C127.013 64.8771 137.047 54.8619 137.047 42.5074C137.047 30.1531 127.013 20.1378 114.635 20.1378C102.258 20.1378 92.2229 30.1531 92.2229 42.5074C92.2229 54.8619 102.258 64.8771 114.635 64.8771Z" fill="url(#paint3_radial_417_12610)"/>
<path style="mix-blend-mode:screen" d="M139.478 100.173C151.856 100.173 161.891 90.1579 161.891 77.8036C161.891 65.4491 151.856 55.4339 139.478 55.4339C127.1 55.4339 117.065 65.4491 117.065 77.8036C117.065 90.1579 127.1 100.173 139.478 100.173Z" fill="url(#paint4_radial_417_12610)"/>
<path style="mix-blend-mode:screen" d="M165.127 84.9972C176.739 84.9972 186.153 75.6015 186.153 64.0114C186.153 52.4212 176.739 43.0255 165.127 43.0255C153.515 43.0255 144.101 52.4212 144.101 64.0114C144.101 75.6015 153.515 84.9972 165.127 84.9972Z" fill="url(#paint5_radial_417_12610)"/>
<path style="mix-blend-mode:screen" d="M202.144 99.6143C203.997 88.1726 196.207 77.3978 184.743 75.5481C173.28 73.6983 162.485 81.4741 160.631 92.9157C158.778 104.357 166.569 115.132 178.032 116.982C189.495 118.831 200.291 111.056 202.144 99.6143Z" fill="url(#paint6_radial_417_12610)"/>
<path style="mix-blend-mode:screen" d="M93.2185 151.286C128.516 151.286 157.13 122.726 157.13 87.4956C157.13 52.2652 128.516 23.7052 93.2185 23.7052C57.9208 23.7052 29.3064 52.2652 29.3064 87.4956C29.3064 122.726 57.9208 151.286 93.2185 151.286Z" fill="url(#paint7_radial_417_12610)"/>
</g>
<defs>
<linearGradient id="paint0_linear_417_12610" x1="125.365" y1="169.886" x2="111.986" y2="169.886" gradientUnits="userSpaceOnUse">
<stop stop-color="#CB89F0"/>
<stop offset="1" stop-color="#8B3DCE"/>
</linearGradient>
<linearGradient id="paint1_linear_417_12610" x1="28.5284" y1="145.875" x2="33.0459" y2="153.714" gradientUnits="userSpaceOnUse">
<stop offset="0.62069" stop-color="#FFBFFF"/>
<stop offset="0.86384" stop-color="#E09CFF"/>
<stop offset="1" stop-color="#CB89F0"/>
</linearGradient>
<linearGradient id="paint2_linear_417_12610" x1="38.5336" y1="152.713" x2="41.174" y2="157.295" gradientUnits="userSpaceOnUse">
<stop offset="0.62069" stop-color="#FFBFFF"/>
<stop offset="0.86384" stop-color="#E09CFF"/>
<stop offset="1" stop-color="#CB89F0"/>
</linearGradient>
<radialGradient id="paint3_radial_417_12610" cx="0" cy="0" r="1" gradientUnits="userSpaceOnUse" gradientTransform="translate(114.635 42.5074) scale(22.4123 22.3697)">
<stop stop-color="#FF72D5"/>
<stop offset="0.04024" stop-color="#DB62B7"/>
<stop offset="0.09937" stop-color="#AE4E91"/>
<stop offset="0.401042" stop-color="#843B6E" stop-opacity="0"/>
</radialGradient>
<radialGradient id="paint4_radial_417_12610" cx="0" cy="0" r="1" gradientUnits="userSpaceOnUse" gradientTransform="translate(139.478 77.8036) scale(22.4122 22.3696)">
<stop stop-color="#FF72D5"/>
<stop offset="0.04024" stop-color="#DB62B7"/>
<stop offset="0.09937" stop-color="#AE4E91"/>
<stop offset="0.421875" stop-color="#843B6E" stop-opacity="0"/>
</radialGradient>
<radialGradient id="paint5_radial_417_12610" cx="0" cy="0" r="1" gradientUnits="userSpaceOnUse" gradientTransform="translate(165.128 64.0114) scale(21.0259 20.9858)">
<stop stop-color="#FF72D5"/>
<stop offset="0.04024" stop-color="#DB62B7"/>
<stop offset="0.09937" stop-color="#AE4E91"/>
<stop offset="0.458333" stop-color="#843B6E" stop-opacity="0"/>
</radialGradient>
<radialGradient id="paint6_radial_417_12610" cx="0" cy="0" r="1" gradientUnits="userSpaceOnUse" gradientTransform="translate(181.388 96.265) scale(21.0259 20.9859)">
<stop stop-color="#FF72D5"/>
<stop offset="0.04024" stop-color="#DB62B7"/>
<stop offset="0.09937" stop-color="#AE4E91"/>
<stop offset="0.16414" stop-color="#843B6E"/>
<stop offset="0.23318" stop-color="#602B51"/>
<stop offset="1" stop-color="#421E37" stop-opacity="0"/>
</radialGradient>
<radialGradient id="paint7_radial_417_12610" cx="0" cy="0" r="1" gradientUnits="userSpaceOnUse" gradientTransform="translate(93.2185 87.4956) scale(63.912 63.7904)">
<stop stop-color="#FFEC3D"/>
<stop offset="0.0729167" stop-color="#CC36E3"/>
<stop offset="0.21675" stop-color="#E53DFF"/>
<stop offset="0.661458" stop-color="#A22BB4" stop-opacity="0"/>
</radialGradient>
<clipPath id="clip0_417_12610">
<rect width="191" height="180" fill="white" transform="translate(14.5 20)"/>
</clipPath>
</defs>
</svg>
